<svg id="flag-icons-ro" xmlns="http://www.w3.org/2000/svg" viewBox="0 0 806.67 484"><defs><style>.cls-1{fill:#d00;}.cls-2{fill:#ffce00;}.cls-10,.cls-11,.cls-12,.cls-13,.cls-14,.cls-15,.cls-16,.cls-17,.cls-18,.cls-19,.cls-20,.cls-21,.cls-22,.cls-23,.cls-24,.cls-25,.cls-26,.cls-27,.cls-28,.cls-29,.cls-3,.cls-30,.cls-31,.cls-32,.cls-33,.cls-34,.cls-35,.cls-36,.cls-37,.cls-38,.cls-39,.cls-40,.cls-41,.cls-42,.cls-43,.cls-44,.cls-45,.cls-46,.cls-47,.cls-48,.cls-49,.cls-5,.cls-50,.cls-51,.cls-52,.cls-53,.cls-54,.cls-6,.cls-7,.cls-8,.cls-9{fill:#ffc709;}.cls-10,.cls-11,.cls-12,.cls-13,.cls-14,.cls-15,.cls-16,.cls-17,.cls-18,.cls-19,.cls-20,.cls-21,.cls-22,.cls-23,.cls-24,.cls-25,.cls-26,.cls-27,.cls-28,.cls-29,.cls-3,.cls-30,.cls-31,.cls-32,.cls-33,.cls-34,.cls-35,.cls-36,.cls-37,.cls-38,.cls-39,.cls-4,.cls-40,.cls-41,.cls-42,.cls-43,.cls-44,.cls-45,.cls-46,.cls-47,.cls-48,.cls-49,.cls-5,.cls-50,.cls-51,.cls-52,.cls-53,.cls-54,.cls-55,.cls-57,.cls-6,.cls-8,.cls-9{stroke:#000;}.cls-18,.cls-19,.cls-20,.cls-21,.cls-23,.cls-3,.cls-55,.cls-56,.cls-57,.cls-58,.cls-59,.cls-6{stroke-miterlimit:10;}.cls-12,.cls-3{stroke-width:1.28px;}.cls-10,.cls-11,.cls-12,.cls-13,.cls-14,.cls-15,.cls-16,.cls-17,.cls-24,.cls-25,.cls-26,.cls-27,.cls-28,.cls-29,.cls-30,.cls-31,.cls-32,.cls-33,.cls-34,.cls-35,.cls-36,.cls-37,.cls-38,.cls-39,.cls-4,.cls-40,.cls-41,.cls-42,.cls-43,.cls-44,.cls-45,.cls-46,.cls-47,.cls-48,.cls-49,.cls-5,.cls-50,.cls-51,.cls-52,.cls-53,.cls-54,.cls-8,.cls-9{stroke-linejoin:round;}.cls-4{stroke-width:2.56px;}.cls-5,.cls-6{stroke-width:2.81px;}.cls-8{stroke-width:3.63px;}.cls-9{stroke-width:1.21px;}.cls-10{stroke-width:1.28px;}.cls-11{stroke-width:1.28px;}.cls-13{stroke-width:1.28px;}.cls-14,.cls-22{stroke-width:6.25px;}.cls-15{stroke-width:1.28px;}.cls-16{stroke-width:1.28px;}.cls-17{stroke-width:1.28px;}.cls-18{stroke-width:1.28px;}.cls-19{stroke-width:1.28px;}.cls-20{stroke-width:1.28px;}.cls-21{stroke-width:1.28px;}.cls-23{stroke-width:1.28px;}.cls-24,.cls-25,.cls-56{stroke-linecap:round;}.cls-24{stroke-width:1.05px;}.cls-25,.cls-56,.cls-58{stroke-width:1.02px;}.cls-26{stroke-width:6.29px;}.cls-27{stroke-width:1.17px;}.cls-28{stroke-width:1.12px;}.cls-29{stroke-width:1.15px;}.cls-30{stroke-width:1.32px;}.cls-31{stroke-width:1.32px;}.cls-32{stroke-width:1.32px;}.cls-33{stroke-width:1.37px;}.cls-34{stroke-width:1.32px;}.cls-35{stroke-width:1.32px;}.cls-36{stroke-width:1.36px;}.cls-37{stroke-width:1.53px;}.cls-38{stroke-width:1.29px;}.cls-39{stroke-width:1.29px;}.cls-40{stroke-width:1.29px;}.cls-41{stroke-width:1.33px;}.cls-42{stroke-width:1.35px;}.cls-43{stroke-width:1.23px;}.cls-44{stroke-width:1.23px;}.cls-45{stroke-width:1.17px;}.cls-46{stroke-width:1.29px;}.cls-47{stroke-width:1.33px;}.cls-48{stroke-width:1.29px;}.cls-49{stroke-width:1.29px;}.cls-50{stroke-width:1.44px;}.cls-51{stroke-width:1.14px;}.cls-52{stroke-width:1.34px;}.cls-53{stroke-width:1.16px;}.cls-54{stroke-width:1.29px;}.cls-55{stroke-width:0.64px;}.cls-56,.cls-58,.cls-59{fill:none;stroke:#ffc709;}.cls-57,.cls-59{stroke-width:0.64px;}</style></defs><path d="M-81.32-2H725.35V482H-81.32Z" transform="translate(81.32 2)"/><path class="cls-1" d="M-81.32,159.33H725.35V482H-81.32Z" transform="translate(81.32 2)"/><path class="cls-2" d="M-81.32,320.67H725.35V482H-81.32Z" transform="translate(81.32 2)"/><path class="cls-1" d="M415.59,238.54c0,52.26-41.92,94.63-93.63,94.63s-93.63-42.37-93.63-94.63,41.92-94.62,93.63-94.62S415.59,186.29,415.59,238.54Z" transform="translate(81.32 2)"/><path id="a" class="cls-3" d="M326.65,353.76l-29,13.69-3.07-2.3,27.2-12.82Z" transform="translate(81.32 2)"/><path id="a-2" data-name="a" class="cls-3" d="M329.72,356.05l-29,13.7-3.06-2.3,27.19-12.82Z" transform="translate(81.32 2)"/><path id="a-3" data-name="a" class="cls-3" d="M332.78,358.34l-29,13.69-3.06-2.29,27.19-12.82Z" transform="translate(81.32 2)"/><path id="a-4" data-name="a" class="cls-3" d="M335.84,360.63l-29,13.7-3.06-2.3L331,359.21Z" transform="translate(81.32 2)"/><path id="a-5" data-name="a" class="cls-3" d="M338.9,362.93l-29,13.69-3.06-2.3,27.19-12.82Z" transform="translate(81.32 2)"/><path id="a-6" data-name="a" class="cls-3" d="M317.05,353.74l29,13.69,3.06-2.3-27.19-12.81Z" transform="translate(81.32 2)"/><path id="a-7" data-name="a" class="cls-3" d="M314,356l29,13.7,3.06-2.3-27.19-12.82Z" transform="translate(81.32 2)"/><path id="a-8" data-name="a" class="cls-3" d="M310.85,358.35l29,13.69,3.06-2.3-27.19-12.82Z" transform="translate(81.32 2)"/><path id="a-9" data-name="a" class="cls-3" d="M307.78,360.63l29,13.69,3.06-2.3L312.62,359.2Z" transform="translate(81.32 2)"/><path id="a-10" data-name="a" class="cls-3" d="M304.73,362.9l29,13.69,3.06-2.3-27.19-12.82Z" transform="translate(81.32 2)"/><path class="cls-4" d="M323.27,159.79,282.09,162v24.26l41.18,2.21h4.46l34.34-5V164.84l-34.34-5.05Z" transform="translate(81.32 2)"/><rect class="cls-5" x="392.45" y="203.14" width="21.42" height="121.25" rx="3.61"/><path class="cls-6" d="M370.28,239.94a66.85,66.85,0,0,1-84.62,9.51l-8.56,12.66a82.12,82.12,0,0,0,104.06-11.45Z" transform="translate(81.32 2)"/><path class="cls-6" d="M314.15,185.72l-59,108.93,66.78-86.16,66.77,86.16-59-108.93-7.8,10.94Z" transform="translate(81.32 2)"/><path class="cls-7" d="M323.2,160.94l-28.29,1.36L283.17,167v14.24L294.76,186l28.44,1.51h4.34l33.38-4.89v-17l-33.38-4.67Z" transform="translate(81.32 2)"/><path class="cls-8" d="M321.83,182.48h0a9.8,9.8,0,0,1,9.8,9.8v.48a9.8,9.8,0,0,1-9.8,9.8h0a9.8,9.8,0,0,1-9.8-9.8v-.48A9.8,9.8,0,0,1,321.83,182.48Z" transform="translate(81.32 2)"/><path class="cls-9" d="M326,192.36a4.16,4.16,0,1,1-4.16-4.15A4.15,4.15,0,0,1,326,192.36Z" transform="translate(81.32 2)"/><g id="b"><path class="cls-7" d="M245.59,338.87l-37.06-41.44-14.55-52,5.18-48,23.72-46,36.66-28.29,21.92-8.17,6.18,9,10.76,3.19-6.17,5.18-.8,13.35L254,170.12,231.24,208l-2.19,42.64,11.36,37.06,43.44,41.44Z" transform="translate(81.32 2)"/><path id="c" class="cls-10" d="M199.73,279.18a51.47,51.47,0,0,0,5.34,10.39c4.11,5.87,7,5.52,7,5.52s4.42.65,4.92-2.8a5.1,5.1,0,0,0-2.24-4.67,44.94,44.94,0,0,0-5.92-3.13c-2.87-1.76-2.69-1.73-4.39-3.92-1.09-2.52-.72-.75-3.52-10.65s-4-15.42-4.1-15.42l-3.52.81L197,269.74l1.29,4.91Z" transform="translate(81.32 2)"/><path id="d" class="cls-11" d="M197.75,245.4,205.42,271a52.84,52.84,0,0,1,1.46,5.64,12.82,12.82,0,0,1-.58,4.78,22.55,22.55,0,0,0-.53,3.68,7.41,7.41,0,0,0,1.08,4.22c0,.07.87,1.33,3.38,1.47,2.88-.18,3.24-2.25,3.24-2.25s.44-.23.22-3.11a37.52,37.52,0,0,0-1.83-7.36l-11-34.61Z" transform="translate(81.32 2)"/><path id="d-2" data-name="d" class="cls-12" d="M193.05,239.1l6.74,25.9a53.84,53.84,0,0,1,1.26,5.69,13,13,0,0,1-.75,4.75,22,22,0,0,0-.66,3.67,7.35,7.35,0,0,0,.92,4.25c0,.08.82,1.37,3.32,1.6,2.89-.08,3.33-2.14,3.33-2.14s.44-.21.33-3.1A37,37,0,0,0,206,272.3l-9.69-35Z" transform="translate(81.32 2)"/><path id="c-2" data-name="c" class="cls-13" d="M195.42,277.13a50.81,50.81,0,0,0,5.2,10.46c4,5.93,6.92,5.61,6.92,5.61s4.41.72,5-2.73a5.08,5.08,0,0,0-2.19-4.7,43.14,43.14,0,0,0-5.87-3.21c-2.85-1.79-2.67-1.76-4.34-4-1-2.54-.71-.76-3.38-10.7s-3.82-15.47-3.9-15.47l-3.53.76,3.5,14.48,1.23,4.93Z" transform="translate(81.32 2)"/><path id="c-3" data-name="c" class="cls-14" d="M208.88,261.77a53.56,53.56,0,0,0,4.41,10.43c3.47,5.94,6,5.68,6,5.68s3.89.79,4.45-2.59a5.22,5.22,0,0,0-1.86-4.69,38,38,0,0,0-5.14-3.29,9.94,9.94,0,0,1-3.77-4c-.89-2.52-.62-.76-2.81-10.63s-3.1-15.35-3.17-15.35l-3.14.68,2.84,14.37,1,4.89Z" transform="translate(81.32 2)"/><path id="c-4" data-name="c" class="cls-12" d="M212.55,262.39a51,51,0,0,0,5,10.56c3.92,6,6.81,5.75,6.81,5.75s4.39.8,5-2.63a5.09,5.09,0,0,0-2.09-4.75,43.07,43.07,0,0,0-5.81-3.32c-2.81-1.86-2.63-1.82-4.25-4.07-1-2.55-.7-.77-3.17-10.76s-3.51-15.54-3.59-15.54l-3.54.69,3.21,14.54,1.12,5Z" transform="translate(81.32 2)"/><path id="d-3" data-name="d" class="cls-12" d="M208.73,235.6l6.74,25.9a53.84,53.84,0,0,1,1.26,5.69,13,13,0,0,1-.75,4.75,22.64,22.64,0,0,0-.67,3.67,7.39,7.39,0,0,0,.93,4.25c0,.08.82,1.37,3.32,1.6,2.89-.08,3.33-2.14,3.33-2.14s.44-.21.32-3.1a37.25,37.25,0,0,0-1.56-7.42l-9.7-35Z" transform="translate(81.32 2)"/><path id="d-4" data-name="d" class="cls-15" d="M221.38,243.56l8.3,25.45a52.9,52.9,0,0,1,1.6,5.6,12.94,12.94,0,0,1-.46,4.79,22,22,0,0,0-.44,3.7,7.41,7.41,0,0,0,1.18,4.18c0,.08.91,1.32,3.42,1.4,2.88-.26,3.19-2.34,3.19-2.34s.43-.23.14-3.11a37.43,37.43,0,0,0-2-7.32l-11.8-34.32Z" transform="translate(81.32 2)"/><path id="c-5" data-name="c" class="cls-16" d="M225.81,277.15a51.24,51.24,0,0,0,5.3,10.41c4.1,5.88,7,5.54,7,5.54s4.41.67,4.93-2.78a5.08,5.08,0,0,0-2.24-4.68,43.88,43.88,0,0,0-5.9-3.15c-2.87-1.77-2.69-1.73-4.38-3.93-1.08-2.52-.72-.75-3.5-10.66s-4-15.44-4.05-15.43l-3.52.8,3.65,14.44,1.27,4.92Z" transform="translate(81.32 2)"/><path id="c-6" data-name="c" class="cls-12" d="M207.24,268.37a51,51,0,0,0,5,10.56c3.92,6,6.81,5.75,6.81,5.75s4.39.8,5-2.63A5.11,5.11,0,0,0,222,277.3a43.07,43.07,0,0,0-5.81-3.32c-2.81-1.86-2.63-1.82-4.25-4.06-1-2.56-.7-.78-3.17-10.77s-3.51-15.54-3.59-15.54l-3.54.69,3.21,14.54,1.12,5Z" transform="translate(81.32 2)"/><path id="c-7" data-name="c" class="cls-12" d="M203.29,265.61a51.12,51.12,0,0,0,5,10.56c3.92,6,6.81,5.75,6.81,5.75s4.39.8,5-2.63a5.08,5.08,0,0,0-2.09-4.74,44.54,44.54,0,0,0-5.81-3.33c-2.81-1.85-2.63-1.81-4.26-4.06-1-2.55-.69-.77-3.17-10.76s-3.51-15.55-3.58-15.55l-3.55.7,3.21,14.54,1.13,5Z" transform="translate(81.32 2)"/><path id="d-5" data-name="d" class="cls-12" d="M212.9,238.05l6.73,25.9a53.84,53.84,0,0,1,1.26,5.69,13,13,0,0,1-.75,4.75,22,22,0,0,0-.66,3.67,7.35,7.35,0,0,0,.92,4.25c0,.08.82,1.36,3.33,1.6,2.88-.08,3.32-2.14,3.32-2.14s.45-.21.33-3.1a37,37,0,0,0-1.57-7.42l-9.69-35Z" transform="translate(81.32 2)"/><path id="c-8" data-name="c" class="cls-17" d="M230.3,278.43a51.28,51.28,0,0,0,5.76,10.16c4.35,5.7,7.21,5.23,7.21,5.23s4.44.47,4.8-3a5.1,5.1,0,0,0-2.43-4.58,44.47,44.47,0,0,0-6-2.89c-2.94-1.64-2.76-1.61-4.55-3.73-1.19-2.47-.75-.72-4-10.5s-4.65-15.24-4.73-15.24l-3.48,1,4.28,14.27,1.49,4.85Z" transform="translate(81.32 2)"/><path class="cls-12" d="M226.33,248.64l9.26,24.74a51.27,51.27,0,0,1,1.81,5.46,13,13,0,0,1-.28,4.82,22.34,22.34,0,0,0-.3,3.72,7.12,7.12,0,0,0,1.34,4.09c0,.08,1,1.24,3.47,1.12,2.86-.49,3.09-2.59,3.09-2.59a14,14,0,0,0-.37-5.44c-.63-3.39-6.7-14.5-9.1-22l-5.35-16.37Z" transform="translate(81.32 2)"/><path id="e" class="cls-3" d="M222.55,153.62a88.7,88.7,0,0,0-8.28,11.92c-4.65,7.83-4.85,8.15-7,14-1.55,5.73-1.56,7.66-.49,10.86,1.39,2.58,2.74,3.12,4,3.17s1.91-.29,2.83-1.72c1.86-4.21-.48-6.32-1.18-9.83s-.41-.81-.41-3.41a10.33,10.33,0,0,1,1.93-5.28,77.78,77.78,0,0,1,5.08-8.11c4.05-6.2,6-9.6,6-9.6s.43-1.39-.5-2.06a1.81,1.81,0,0,0-1.94,0Z" transform="translate(81.32 2)"/><path id="e-2" data-name="e" class="cls-3" d="M220,152.38a88.7,88.7,0,0,0-8.28,11.92c-4.65,7.83-4.85,8.15-7,14-1.55,5.72-1.57,7.65-.49,10.85,1.38,2.58,2.73,3.12,4,3.17s1.91-.29,2.84-1.72c1.86-4.21-.48-6.32-1.19-9.83s-.41-.81-.41-3.41a10.34,10.34,0,0,1,1.94-5.28,74.94,74.94,0,0,1,5.08-8.11c4-6.19,6-9.6,6-9.6s.43-1.38-.51-2.06a1.81,1.81,0,0,0-1.94,0Z" transform="translate(81.32 2)"/><path id="e-3" data-name="e" class="cls-18" d="M241.49,146.15a88.65,88.65,0,0,0-9.76,10.74c-5.62,7.15-5.86,7.45-8.77,13-2.28,5.48-2.55,7.39-1.9,10.7,1,2.74,2.31,3.45,3.55,3.66s1.93,0,3-1.33c2.39-3.94.34-6.34.1-9.9s-.3-.86,0-3.44a10.21,10.21,0,0,1,2.61-5,73.58,73.58,0,0,1,6.09-7.39c4.81-5.61,7.17-8.74,7.17-8.74s.61-1.32-.23-2.11a1.81,1.81,0,0,0-1.93-.2Z" transform="translate(81.32 2)"/><path id="f" class="cls-19" d="M229.33,146.16s-6.19,10.11-8.43,14c-2.73,4.26-5.22,10.28-7.6,13.47-2.87,3-5.73,3.54-7.74,5.47-2.3,2.07-2.73,3.07-2.84,4.8a3.55,3.55,0,0,0,4.66,3.28c2.29-.29,4.83-4,4.83-4l5.54-10.49c4.92-10.15,14.77-25.12,14.77-25.12Z" transform="translate(81.32 2)"/><path id="e-4" data-name="e" class="cls-3" d="M216.77,152.49a89.19,89.19,0,0,0-8.29,11.92c-4.64,7.83-4.84,8.15-7,14-1.55,5.73-1.56,7.66-.49,10.86,1.38,2.58,2.74,3.12,4,3.17s1.91-.29,2.83-1.72c1.86-4.21-.48-6.32-1.18-9.83s-.41-.81-.41-3.41a10.23,10.23,0,0,1,1.93-5.28,77.78,77.78,0,0,1,5.08-8.11c4.05-6.2,6-9.6,6-9.6s.43-1.39-.51-2.06a1.8,1.8,0,0,0-1.93,0Z" transform="translate(81.32 2)"/><path id="f-2" data-name="f" class="cls-3" d="M248.35,147.52s-7.6,9.1-10.39,12.61c-3.32,3.81-6.67,9.41-9.49,12.22-3.28,2.58-6.18,2.65-8.45,4.28-2.58,1.7-3.15,2.63-3.51,4.33a3.55,3.55,0,0,0,4.13,3.92c2.31.05,5.36-3.22,5.36-3.22l7-9.57c6.35-9.32,18.28-22.69,18.28-22.69Z" transform="translate(81.32 2)"/><path id="e-5" data-name="e" class="cls-20" d="M244,148.18a87.9,87.9,0,0,0-9.62,10.87c-5.54,7.23-5.77,7.52-8.61,13.11-2.21,5.5-2.45,7.42-1.76,10.72,1.08,2.72,2.36,3.42,3.6,3.62s1.93-.07,3-1.38c2.34-4,.26-6.34,0-9.9s-.31-.86,0-3.43a10.38,10.38,0,0,1,2.54-5,75.71,75.71,0,0,1,6-7.47c4.74-5.68,7.06-8.83,7.06-8.83a2,2,0,0,0-.26-2.11,1.8,1.8,0,0,0-1.93-.18Z" transform="translate(81.32 2)"/><path id="f-3" data-name="f" class="cls-3" d="M251.25,148.84s-7.6,9.1-10.39,12.61c-3.32,3.82-6.67,9.41-9.49,12.22-3.28,2.58-6.18,2.66-8.45,4.28-2.58,1.7-3.15,2.63-3.51,4.33a3.55,3.55,0,0,0,4.13,3.92c2.31.05,5.36-3.22,5.36-3.22l7-9.57c6.35-9.32,18.28-22.69,18.28-22.69Z" transform="translate(81.32 2)"/><path id="e-6" data-name="e" class="cls-21" d="M237.71,144.5A89.23,89.23,0,0,0,228,155.33c-5.56,7.21-5.79,7.5-8.66,13.07-2.23,5.5-2.47,7.42-1.8,10.72,1.06,2.72,2.34,3.43,3.59,3.63s1.93-.06,3-1.36c2.35-4,.29-6.34,0-9.91s-.31-.85,0-3.43a10.45,10.45,0,0,1,2.55-5,79.53,79.53,0,0,1,6-7.44c4.77-5.65,7.1-8.8,7.1-8.8a2,2,0,0,0-.26-2.11,1.8,1.8,0,0,0-1.92-.19Z" transform="translate(81.32 2)"/><path id="f-4" data-name="f" class="cls-3" d="M252.08,153s-7.6,9.1-10.38,12.61c-3.33,3.81-6.67,9.41-9.49,12.22-3.28,2.58-6.19,2.65-8.46,4.28-2.58,1.7-3.15,2.63-3.51,4.33a3.55,3.55,0,0,0,4.13,3.92c2.31,0,5.36-3.22,5.36-3.22s4.15-5.67,7-9.57c6.35-9.32,18.27-22.69,18.27-22.69Z" transform="translate(81.32 2)"/><path id="f-5" data-name="f" class="cls-22" d="M249.76,160.42s-7.92,9.87-10.81,13.67c-3.48,4.14-6.88,10.14-9.85,13.21-3.49,2.85-6.7,3-9.13,4.85-2.76,1.9-3.34,2.89-3.65,4.69a3.88,3.88,0,0,0,4.77,3.93c2.56-.05,5.76-3.61,5.76-3.61l7.25-10.33c6.53-10,19-24.56,19-24.56Z" transform="translate(81.32 2)"/><path id="g" class="cls-23" d="M252.16,168.56s-1.1,1.32-10.38,13.23c-8.48,13-9.77,15.5-9.77,15.5s-1.37,2.52-2.75,3.27-3.74.67-4.45.13-1.06-.59-1.29-3.11a3.91,3.91,0,0,1,1.31-2.63,9.06,9.06,0,0,1,3.44-1.6,8.08,8.08,0,0,0,3.15-3c2.05-3.23,3-4.81,6.41-9.52,4.47-6.23,8-10,12.07-14.9Z" transform="translate(81.32 2)"/><path id="f-6" data-name="f" class="cls-22" d="M252.58,166.32s-7.25,10-9.88,13.81c-3.19,4.2-6.16,10.16-8.93,13.3-3.33,3-6.58,3.41-8.9,5.31-2.66,2-3.17,3-3.33,4.73,0,2.34,2.57,4.08,5.2,3.37,2.61-.24,5.57-3.86,5.57-3.86s3.86-6.14,6.53-10.37c5.81-10,17.32-24.79,17.32-24.79Z" transform="translate(81.32 2)"/><path id="g-2" data-name="g" class="cls-3" d="M258.28,169.84s-1,1.38-9.68,13.75c-7.8,13.46-9,16-9,16s-1.23,2.58-2.57,3.41-3.7.86-4.44.36-1.08-.54-1.44-3a3.94,3.94,0,0,1,1.17-2.7,8.84,8.84,0,0,1,3.35-1.77,8.09,8.09,0,0,0,3-3.12c1.88-3.34,2.71-5,5.91-9.85,4.14-6.45,7.46-10.42,11.28-15.5Z" transform="translate(81.32 2)"/><path class="cls-24" d="M308.28,103.29a133.87,133.87,0,0,0-34.09,8.2l.92,1.84a132.75,132.75,0,0,1,33.5-8C309.6,105.18,309.38,103.19,308.28,103.29Z" transform="translate(81.32 2)"/><path class="cls-25" d="M315.15,106.47a120.54,120.54,0,0,0-28.81,4.89c-3.54,1-7,2.19-10.46,3.5l.93,1.87a129.42,129.42,0,0,1,38.52-8.21c1.21-.13,1-2-.18-2Z" transform="translate(81.32 2)"/><path class="cls-25" d="M310.1,110.63a128.86,128.86,0,0,0-32.52,7.63l.79,1.57a128,128,0,0,1,32-7.49C311.39,112.27,311.19,110.53,310.1,110.63Z" transform="translate(81.32 2)"/><path class="cls-25" d="M279,121.06l.92,1.85a124.15,124.15,0,0,1,39-7.72c1.17-.07,1.17-2-.15-2A131.67,131.67,0,0,0,279,121.06Z" transform="translate(81.32 2)"/><path class="cls-25" d="M312.82,117.17a123.24,123.24,0,0,0-32.13,7.29l.95,1.89a131,131,0,0,1,31.53-7.15c1.22-.18.93-2.13-.35-2Z" transform="translate(81.32 2)"/><path class="cls-25" d="M282.57,128.2l.92,1.84c9.93-3.64,26.24-7.09,35.7-6.93,1-.08.94-2-.08-2.07-11.88,0-24.29,2.71-36.54,7.16Z" transform="translate(81.32 2)"/><path class="cls-25" d="M311.74,125.45a118.37,118.37,0,0,0-27.32,6.45l.92,1.84A112.54,112.54,0,0,1,312,127.51a1,1,0,1,0-.23-2.06Z" transform="translate(81.32 2)"/><path class="cls-25" d="M286.26,135.57l.93,1.85a121.37,121.37,0,0,1,29.7-6.09,1.05,1.05,0,0,0-.17-2.09C306.49,129.63,295.34,132.39,286.26,135.57Z" transform="translate(81.32 2)"/><path class="cls-25" d="M317.64,133.7c-7.58.05-20.85,2.84-29.37,5.88l.93,1.85c8.14-2.88,21.56-5.53,28.54-5.7A1,1,0,1,0,317.64,133.7Z" transform="translate(81.32 2)"/><path class="cls-25" d="M311.18,138.49a109.09,109.09,0,0,0-20.91,5.1l.93,1.84a99,99,0,0,1,20.41-5A1,1,0,1,0,311.18,138.49Z" transform="translate(81.32 2)"/><path class="cls-25" d="M317.38,141.88c-7.83.28-18.05,2.58-25.38,5.14l.93,1.86c6.83-2.36,16.59-4.65,24.48-4.94a1,1,0,1,0,0-2.06Z" transform="translate(81.32 2)"/><path id="h" class="cls-26" d="M303,136.26s-16.38-3.46-15.36,5.71C291.88,149.53,303,136.26,303,136.26Z" transform="translate(81.32 2)"/><path id="h-2" data-name="h" class="cls-27" d="M299.47,146.74s-13.28,8.6-15.61.14C285,138.75,299.47,146.74,299.47,146.74Z" transform="translate(81.32 2)"/><path id="h-3" data-name="h" class="cls-26" d="M289.42,135.57s-15.33,3.77-10.61,11.33C285.58,151.74,289.42,135.57,289.42,135.57Z" transform="translate(81.32 2)"/><path id="h-4" data-name="h" class="cls-28" d="M289.71,151.13s-13.15,7.51-14.74-.87C276.57,142.44,289.71,151.13,289.71,151.13Z" transform="translate(81.32 2)"/><path id="h-5" data-name="h" class="cls-29" d="M279.37,138.91s-14.56,5.49-9,12.26C277.53,155.06,279.37,138.91,279.37,138.91Z" transform="translate(81.32 2)"/><path id="h-6" data-name="h" class="cls-26" d="M281.43,155.27s-12.46,7.63-13.84-.74C269.21,146.69,281.43,155.27,281.43,155.27Z" transform="translate(81.32 2)"/><path id="h-7" data-name="h" class="cls-26" d="M269.81,143.23s-13,8-6.25,13.23C271.36,158.66,269.81,143.23,269.81,143.23Z" transform="translate(81.32 2)"/><path id="h-8" data-name="h" class="cls-26" d="M274.86,158.71s-11.91,9.66-14.8,1.59C260.44,152.24,274.86,158.71,274.86,158.71Z" transform="translate(81.32 2)"/><path id="h-9" data-name="h" class="cls-26" d="M267.87,163.19s-10,10.34-13.7,3.19C253.55,158.85,267.87,163.19,267.87,163.19Z" transform="translate(81.32 2)"/><path id="h-10" data-name="h" class="cls-26" d="M261.91,149.27s-12.71,8-6,13C263.66,164.32,261.91,149.27,261.91,149.27Z" transform="translate(81.32 2)"/><path id="h-11" data-name="h" class="cls-26" d="M254,154.74s-11.56,9.49-4.26,13.75C257.65,169.65,254,154.74,254,154.74Z" transform="translate(81.32 2)"/><path id="h-12" data-name="h" class="cls-26" d="M261.15,169.12s-10,11.19-13.75,3.29C246.74,164.15,261.15,169.12,261.15,169.12Z" transform="translate(81.32 2)"/><path id="h-13" data-name="h" class="cls-26" d="M290.63,111.68s-17.93-3.44-16.54,7C278.92,127.17,290.63,111.68,290.63,111.68Z" transform="translate(81.32 2)"/><path id="h-14" data-name="h" class="cls-26" d="M275.77,110.59s-16.47,7.15-9.66,14.53C274.68,129.09,275.77,110.59,275.77,110.59Z" transform="translate(81.32 2)"/><path id="h-15" data-name="h" class="cls-26" d="M266.36,114.79s-16.87,8.51-9.45,16.21C266,134.93,266.36,114.79,266.36,114.79Z" transform="translate(81.32 2)"/><path id="h-16" data-name="h" class="cls-26" d="M256.6,119.56s-15.69,9.53-8,16.46C257.72,139.15,256.6,119.56,256.6,119.56Z" transform="translate(81.32 2)"/><path id="h-17" data-name="h" class="cls-26" d="M246.45,125.91s-13.95,11-5.42,16.32C250.34,143.88,246.45,125.91,246.45,125.91Z" transform="translate(81.32 2)"/><path id="h-18" data-name="h" class="cls-30" d="M238.74,131.52s-13.53,11.63-4.88,16.75C243.17,149.61,238.74,131.52,238.74,131.52Z" transform="translate(81.32 2)"/><path id="h-19" data-name="h" class="cls-31" d="M231.39,136.84s-13.62,11.46-5,16.63C235.67,154.9,231.39,136.84,231.39,136.84Z" transform="translate(81.32 2)"/><path id="h-20" data-name="h" class="cls-32" d="M223.72,143.58s-12,13-2.88,17.12C230.15,161,223.72,143.58,223.72,143.58Z" transform="translate(81.32 2)"/><path id="h-21" data-name="h" class="cls-26" d="M307.26,123s-10.45,14.42-16.19,6.21C289,120,307.26,123,307.26,123Z" transform="translate(81.32 2)"/><path id="h-22" data-name="h" class="cls-26" d="M299.16,115.86s-17.32-.07-14.27,10C290.83,133.37,299.16,115.86,299.16,115.86Z" transform="translate(81.32 2)"/><path id="h-23" data-name="h" class="cls-33" d="M298.5,132.89s-16.36,8.53-18-1.72C282.77,121.72,298.5,132.89,298.5,132.89Z" transform="translate(81.32 2)"/><path id="h-24" data-name="h" class="cls-26" d="M287.35,117.11s-18,4.61-12.31,13.26C283.1,135.84,287.35,117.11,287.35,117.11Z" transform="translate(81.32 2)"/><path id="h-25" data-name="h" class="cls-26" d="M287.15,136.46s-16.38,9.18-18.16-1.55C271.13,125,287.15,136.46,287.15,136.46Z" transform="translate(81.32 2)"/><path id="h-26" data-name="h" class="cls-34" d="M276.86,141.75s-15.37,8.86-17.3-1C261.37,131.53,276.86,141.75,276.86,141.75Z" transform="translate(81.32 2)"/><path id="h-27" data-name="h" class="cls-26" d="M275.82,120.2s-18.75,7.17-11.65,16.06C273.43,141.37,275.82,120.2,275.82,120.2Z" transform="translate(81.32 2)"/><path id="h-28" data-name="h" class="cls-26" d="M263.14,126.91s-16.45,9.56-8.29,16.41C264.42,146.4,263.14,126.91,263.14,126.91Z" transform="translate(81.32 2)"/><path id="h-29" data-name="h" class="cls-35" d="M267.62,146.44s-14,10.7-17,.94C251.46,137.85,267.62,146.44,267.62,146.44Z" transform="translate(81.32 2)"/><path id="h-30" data-name="h" class="cls-26" d="M252.39,133s-15.42,11.2-6.61,17.3C255.61,152.49,252.39,133,252.39,133Z" transform="translate(81.32 2)"/><path id="h-31" data-name="h" class="cls-26" d="M243.25,139.12s-13.88,11.62-5.12,16.85C247.6,157.4,243.25,139.12,243.25,139.12Z" transform="translate(81.32 2)"/><path id="h-32" data-name="h" class="cls-36" d="M259.33,151.93s-13,12.71-17.57,3.55C241.17,146,259.33,151.93,259.33,151.93Z" transform="translate(81.32 2)"/><path id="h-33" data-name="h" class="cls-26" d="M214.53,314.23s12.44,14.19,18.82,5.61C235.47,310.44,214.53,314.23,214.53,314.23Z" transform="translate(81.32 2)"/><path id="h-34" data-name="h" class="cls-37" d="M220.61,322.19s13.66,15.27,19.45,5.33C241.48,316.89,220.61,322.19,220.61,322.19Z" transform="translate(81.32 2)"/><path id="h-35" data-name="h" class="cls-38" d="M229.57,330.26s12,12.47,16.53,3.84C246.92,325,229.57,330.26,229.57,330.26Z" transform="translate(81.32 2)"/><path id="h-36" data-name="h" class="cls-39" d="M239.91,299.2s11.57,12.89,2.63,16.76C233.43,316.11,239.91,299.2,239.91,299.2Z" transform="translate(81.32 2)"/><path id="h-37" data-name="h" class="cls-26" d="M230.38,313.65s8.79,15.86,15.59,8.29C249.17,312.94,230.38,313.65,230.38,313.65Z" transform="translate(81.32 2)"/><path id="h-38" data-name="h" class="cls-40" d="M245.87,310.63s10.61,13.69,16,5.6C263.67,307.29,245.87,310.63,245.87,310.63Z" transform="translate(81.32 2)"/><path id="h-39" data-name="h" class="cls-41" d="M245.91,306.62s13,12.24,4.19,17C240.81,324.64,245.91,306.62,245.91,306.62Z" transform="translate(81.32 2)"/><path id="h-40" data-name="h" class="cls-42" d="M237,324s11.94,13.57,17.12,4.85C255.43,319.48,237,324,237,324Z" transform="translate(81.32 2)"/><path id="h-41" data-name="h" class="cls-43" d="M260.54,300.24s12.61,11.05,5,16C257.25,317.58,260.54,300.24,260.54,300.24Z" transform="translate(81.32 2)"/><path id="h-42" data-name="h" class="cls-44" d="M252.92,316.34s11,12.38,15.64,4.32C269.69,312,252.92,316.34,252.92,316.34Z" transform="translate(81.32 2)"/><path id="h-43" data-name="h" class="cls-45" d="M268.18,306.09s11.74,10.38,4,14.71C263.87,321.83,268.18,306.09,268.18,306.09Z" transform="translate(81.32 2)"/><path id="h-44" data-name="h" class="cls-46" d="M258.31,322.52s13.15,11.28,16.82,2.26C275.08,315.67,258.31,322.52,258.31,322.52Z" transform="translate(81.32 2)"/><path id="h-45" data-name="h" class="cls-47" d="M253,314.12s14.5,10.64,6.23,16.46C250,332.66,253,314.12,253,314.12Z" transform="translate(81.32 2)"/><path id="h-46" data-name="h" class="cls-48" d="M261.35,321.16s13.82,10.44,5.79,15.95C258.23,339,261.35,321.16,261.35,321.16Z" transform="translate(81.32 2)"/><path id="h-47" data-name="h" class="cls-49" d="M275.57,313.44s12.17,12.33,3.43,16.62C269.91,330.65,275.57,313.44,275.57,313.44Z" transform="translate(81.32 2)"/><path id="h-48" data-name="h" class="cls-26" d="M198.57,185s-6.12,16.94,4.2,17.14C211.75,198.73,198.57,185,198.57,185Z" transform="translate(81.32 2)"/><path id="h-49" data-name="h" class="cls-26" d="M195,195.11s-4.83,17.47,5.57,16.92C209.36,207.91,195,195.11,195,195.11Z" transform="translate(81.32 2)"/><path id="h-50" data-name="h" class="cls-26" d="M192.14,205.29s-3.9,17.46,7.05,16.31C208.18,217,192.14,205.29,192.14,205.29Z" transform="translate(81.32 2)"/><path id="h-51" data-name="h" class="cls-26" d="M190.36,215.49s-2.05,19,8.14,16.73C206.52,226.49,190.36,215.49,190.36,215.49Z" transform="translate(81.32 2)"/><path id="h-52" data-name="h" class="cls-26" d="M189.29,226s-1.36,18.14,8.79,15.62C205.93,235.9,189.29,226,189.29,226Z" transform="translate(81.32 2)"/><path id="h-53" data-name="h" class="cls-50" d="M216.8,175.67s-12.27,14.86-1.6,18.33C225.75,193.44,216.8,175.67,216.8,175.67Z" transform="translate(81.32 2)"/><path id="h-54" data-name="h" class="cls-26" d="M228.26,188.67s-5.69,17.25-13.95,11.17C209.36,191.65,228.26,188.67,228.26,188.67Z" transform="translate(81.32 2)"/><path id="h-55" data-name="h" class="cls-26" d="M209,186.93s-8.5,16.25,1.91,17.78C220.48,202.39,209,186.93,209,186.93Z" transform="translate(81.32 2)"/><path id="h-56" data-name="h" class="cls-26" d="M228.28,191.81s-10.3,13.41-.92,15.65C236.53,206.29,228.28,191.81,228.28,191.81Z" transform="translate(81.32 2)"/><path id="h-57" data-name="h" class="cls-26" d="M238.92,201.75s-4.35,15-11.07,9.82C223.77,204.53,238.92,201.75,238.92,201.75Z" transform="translate(81.32 2)"/><path id="h-58" data-name="h" class="cls-26" d="M223.08,201.18s-6.69,14.79,2,15.38C232.91,213.86,223.08,201.18,223.08,201.18Z" transform="translate(81.32 2)"/><path id="h-59" data-name="h" class="cls-26" d="M224.82,198.44s-4.81,17.39-13.13,11.71C206.51,202.23,224.82,198.44,224.82,198.44Z" transform="translate(81.32 2)"/><path id="h-60" data-name="h" class="cls-26" d="M203.81,198.38s-5.53,18.5,5.5,18.1C218.7,212.27,203.81,198.38,203.81,198.38Z" transform="translate(81.32 2)"/><path id="h-61" data-name="h" class="cls-26" d="M236.05,209.92s-2.85,14.52-10.24,10.44C220.91,214.24,236.05,209.92,236.05,209.92Z" transform="translate(81.32 2)"/><path id="h-62" data-name="h" class="cls-26" d="M220.5,211.15s-5.63,14,3.21,14C231.5,222.21,220.5,211.15,220.5,211.15Z" transform="translate(81.32 2)"/><path id="h-63" data-name="h" class="cls-26" d="M221.35,207.56s-1.81,18.16-11.23,14C203.48,214.54,221.35,207.56,221.35,207.56Z" transform="translate(81.32 2)"/><path id="h-64" data-name="h" class="cls-26" d="M200.34,209.52s-3.2,19.54,7.07,17.9C215.75,222.05,200.34,209.52,200.34,209.52Z" transform="translate(81.32 2)"/><path id="h-65" data-name="h" class="cls-26" d="M234.4,217.29s-2,15.92-9.67,11.94C219.48,222.9,234.4,217.29,234.4,217.29Z" transform="translate(81.32 2)"/><path id="h-66" data-name="h" class="cls-51" d="M218.62,221s-4.18,14.64,4.56,13.93C230.58,231.25,218.62,221,218.62,221Z" transform="translate(81.32 2)"/><path id="h-67" data-name="h" class="cls-52" d="M219.2,218s-.54,18.14-10.1,14.62C202.1,226.15,219.2,218,219.2,218Z" transform="translate(81.32 2)"/><path id="h-68" data-name="h" class="cls-26" d="M198.52,221.61s-.32,19.27,9.6,16C215.57,231.11,198.52,221.61,198.52,221.61Z" transform="translate(81.32 2)"/><path id="h-69" data-name="h" class="cls-26" d="M188.25,235.58s.46,18.45,10.13,14.92C205.48,244,188.25,235.58,188.25,235.58Z" transform="translate(81.32 2)"/><path id="h-70" data-name="h" class="cls-26" d="M232.68,225.93s.46,15.33-8,12.9C218.33,233.77,232.68,225.93,232.68,225.93Z" transform="translate(81.32 2)"/><path id="h-71" data-name="h" class="cls-26" d="M216.73,231.49s-1.89,16,7.39,13.72C231.44,240.1,216.73,231.49,216.73,231.49Z" transform="translate(81.32 2)"/><path id="h-72" data-name="h" class="cls-26" d="M218.53,227.52s.87,18.39-8.85,15.61C202.26,237.17,218.53,227.52,218.53,227.52Z" transform="translate(81.32 2)"/><path id="h-73" data-name="h" class="cls-26" d="M197.26,232.7s1.43,18.4,10.68,14.33C214.52,240.1,197.26,232.7,197.26,232.7Z" transform="translate(81.32 2)"/><path id="h-74" data-name="h" class="cls-53" d="M232.27,234.59s2.13,15.38-6.5,13.7C218.9,243.78,232.27,234.59,232.27,234.59Z" transform="translate(81.32 2)"/><path id="h-75" data-name="h" class="cls-26" d="M217.13,241.18s-.72,16,7.31,13.16C230.57,248.81,217.13,241.18,217.13,241.18Z" transform="translate(81.32 2)"/><path id="h-76" data-name="h" class="cls-26" d="M232.76,243.13s2.46,14.84-6.28,13C219.45,251.6,232.76,243.13,232.76,243.13Z" transform="translate(81.32 2)"/><path id="h-77" data-name="h" class="cls-54" d="M188.34,246.45s2.55,17.13,11.23,12.71C205.5,252.24,188.34,246.45,188.34,246.45Z" transform="translate(81.32 2)"/><path class="cls-55" d="M221.34,282.11s-9.7.12-16.17-1.94C196.68,277.85,193.3,270,193.3,270a7.87,7.87,0,0,0-1.16,4.35c.07,2.32,1.73,7.69,5.9,13.36,4.32,7,7.27,15.24,10.75,20.65,2.79,4.88,8.67,9.29,8.67,9.29S236.19,315.42,238,315c2.42-.37,19-4.18,22.68-4.39s12.14.34,12.14.34-3-5.47-4.4-6.53c-2.86-2.37-6.33-3.33-9.91-6.8-2-2.15-5.26-6-7.12-8-2.32-2.22-4.07-4.4-6.6-5.82-2.06-1.35-23.45-1.7-23.45-1.7Z" transform="translate(81.32 2)"/><path class="cls-7" d="M263.66,301.71s-6.88.18-10.19.6c-3.67.58-11.54,1.53-17.86,2.18a158,158,0,0,1-16.89,1.06L207.08,305a46.38,46.38,0,0,0,2.44,4,24.67,24.67,0,0,0,4.47,5.27,45.88,45.88,0,0,0,3.54,3.08c1.4-.16,10.2-1.21,13.76-1.7,5.84-.57,8.81-1.36,15.55-2.78,3.52-.72,11.68-2.44,13.8-2.55,2.39-.2,10.9.25,11.8.33-.57-.92-1.23-2-2.16-3.6-1.32-2.23-2.35-2.8-4.2-4-.74-.48-2.35-1.32-2.42-1.35Z" transform="translate(81.32 2)"/><path class="cls-1" d="M200.15,290.87c.55,1,2,3.89,3.25,6.47,1.64,3.53,2.54,5.46,3.73,7.78,2.6.19,5.13.27,11.59.47a157.86,157.86,0,0,0,16.89-1.06c6.32-.64,14.2-1.59,17.86-2.17,3.31-.42,10.3-.59,10.3-.59a46,46,0,0,1-4.55-3.11c-1.79-1.66-2.61-2.85-4.07-4.39-1.9-.15-4.54-.17-7.43-.37-5.06-.29-12.83.24-17.16.24a167.54,167.54,0,0,1-17.83-.86c-8.39-.61-10.41-2-12.58-2.41Z" transform="translate(81.32 2)"/><path class="cls-56" d="M193.17,271.75a23,23,0,0,0,4.65,5.7c3.5,2.5,4.41,3,11.18,4.59,6.11,1,7.48.69,15.62.94,7.93.25,10.23.43,15.36.85a39.55,39.55,0,0,1,4.38.58" transform="translate(81.32 2)"/></g><g id="b-2" data-name="b"><path class="cls-7" d="M398.43,338.87l37.07-41.44,14.54-52-5.18-48-23.71-46L384.48,123.1l-21.92-8.17-6.18,9-10.76,3.19,6.18,5.18.8,13.35,37.46,24.51L412.78,208,415,250.61l-11.36,37.06-43.44,41.44Z" transform="translate(81.32 2)"/><path id="c-9" data-name="c" class="cls-10" d="M444.29,279.18A51.06,51.06,0,0,1,439,289.57c-4.12,5.87-7,5.52-7,5.52s-4.41.65-4.92-2.8a5.09,5.09,0,0,1,2.25-4.67,44.4,44.4,0,0,1,5.91-3.13c2.87-1.76,2.69-1.73,4.39-3.92,1.09-2.52.72-.75,3.53-10.65s4-15.42,4.09-15.42l3.52.81L447,269.74l-1.28,4.91Z" transform="translate(81.32 2)"/><path id="d-6" data-name="d" class="cls-11" d="M446.27,245.4,438.61,271a52.84,52.84,0,0,0-1.46,5.64,13,13,0,0,0,.57,4.78,21.36,21.36,0,0,1,.53,3.68,7.45,7.45,0,0,1-1.07,4.22c0,.07-.87,1.33-3.38,1.47-2.89-.18-3.25-2.25-3.25-2.25s-.44-.23-.22-3.11a37.26,37.26,0,0,1,1.84-7.36l10.95-34.61Z" transform="translate(81.32 2)"/><path id="d-7" data-name="d" class="cls-12" d="M451,239.1,444.23,265a55.27,55.27,0,0,0-1.25,5.69,12.71,12.71,0,0,0,.75,4.75,23.26,23.26,0,0,1,.66,3.67,7.44,7.44,0,0,1-.92,4.25c0,.08-.83,1.37-3.33,1.6-2.89-.08-3.33-2.14-3.33-2.14s-.44-.21-.32-3.1a37.25,37.25,0,0,1,1.56-7.42l9.7-35Z" transform="translate(81.32 2)"/><path id="c-10" data-name="c" class="cls-13" d="M448.6,277.13a50.81,50.81,0,0,1-5.2,10.46c-4,5.93-6.92,5.61-6.92,5.61s-4.4.72-5-2.73a5.1,5.1,0,0,1,2.19-4.7,43.91,43.91,0,0,1,5.87-3.21c2.85-1.79,2.67-1.76,4.34-4,1.06-2.54.71-.76,3.39-10.7s3.81-15.47,3.89-15.47l3.53.76-3.5,14.48L450,272.59Z" transform="translate(81.32 2)"/><path id="c-11" data-name="c" class="cls-14" d="M435.14,261.77a52.81,52.81,0,0,1-4.41,10.43c-3.47,5.94-6,5.68-6,5.68s-3.89.79-4.44-2.59a5.2,5.2,0,0,1,1.85-4.69,38.5,38.5,0,0,1,5.15-3.29,10,10,0,0,0,3.76-4c.9-2.52.62-.76,2.81-10.63s3.11-15.35,3.17-15.35l3.15.68-2.85,14.37-1,4.89Z" transform="translate(81.32 2)"/><path id="c-12" data-name="c" class="cls-12" d="M431.48,262.39a51.39,51.39,0,0,1-5,10.56c-3.92,6-6.81,5.75-6.81,5.75s-4.39.8-5-2.63a5.11,5.11,0,0,1,2.09-4.75,43.86,43.86,0,0,1,5.81-3.32c2.81-1.86,2.63-1.82,4.25-4.07,1-2.55.7-.77,3.18-10.76s3.5-15.54,3.58-15.54l3.55.69-3.21,14.54-1.13,5Z" transform="translate(81.32 2)"/><path id="d-8" data-name="d" class="cls-12" d="M435.29,235.6l-6.74,25.9a55.27,55.27,0,0,0-1.25,5.69,12.71,12.71,0,0,0,.75,4.75,22,22,0,0,1,.66,3.67,7.44,7.44,0,0,1-.92,4.25c0,.08-.83,1.37-3.33,1.6-2.89-.08-3.32-2.14-3.32-2.14s-.45-.21-.33-3.1a37.25,37.25,0,0,1,1.56-7.42l9.7-35Z" transform="translate(81.32 2)"/><path id="d-9" data-name="d" class="cls-15" d="M422.65,243.56,414.34,269a55.79,55.79,0,0,0-1.6,5.6,12.94,12.94,0,0,0,.46,4.79,22,22,0,0,1,.44,3.7,7.32,7.32,0,0,1-1.18,4.18c0,.08-.9,1.32-3.42,1.4-2.87-.26-3.19-2.34-3.19-2.34s-.43-.23-.13-3.11a36.94,36.94,0,0,1,2-7.32l11.81-34.32Z" transform="translate(81.32 2)"/><path id="c-13" data-name="c" class="cls-16" d="M418.22,277.15a51,51,0,0,1-5.31,10.41c-4.09,5.88-7,5.54-7,5.54s-4.42.67-4.93-2.78a5.09,5.09,0,0,1,2.23-4.68,44.42,44.42,0,0,1,5.91-3.15c2.86-1.77,2.68-1.73,4.37-3.93,1.09-2.52.72-.75,3.5-10.66s4-15.44,4.05-15.43l3.53.8L421,267.71l-1.28,4.92Z" transform="translate(81.32 2)"/><path id="c-14" data-name="c" class="cls-12" d="M436.79,268.37a51.39,51.39,0,0,1-5,10.56c-3.92,6-6.81,5.75-6.81,5.75s-4.39.8-5-2.63a5.11,5.11,0,0,1,2.09-4.75,43.86,43.86,0,0,1,5.81-3.32c2.81-1.86,2.63-1.82,4.25-4.06,1-2.56.7-.78,3.18-10.77s3.5-15.54,3.58-15.54l3.55.69-3.21,14.54-1.13,5Z" transform="translate(81.32 2)"/><path id="c-15" data-name="c" class="cls-12" d="M440.73,265.61a50.72,50.72,0,0,1-5,10.56c-3.92,6-6.81,5.75-6.81,5.75s-4.39.8-5-2.63a5.06,5.06,0,0,1,2.09-4.74,43.73,43.73,0,0,1,5.81-3.33c2.8-1.85,2.63-1.81,4.25-4.06,1-2.55.7-.77,3.17-10.76s3.51-15.55,3.59-15.55l3.54.7-3.21,14.54-1.12,5Z" transform="translate(81.32 2)"/><path id="d-10" data-name="d" class="cls-12" d="M431.13,238.05,424.39,264a52.39,52.39,0,0,0-1.25,5.69,12.89,12.89,0,0,0,.74,4.75,22.64,22.64,0,0,1,.67,3.67,7.44,7.44,0,0,1-.92,4.25c0,.08-.83,1.36-3.33,1.6-2.89-.08-3.33-2.14-3.33-2.14s-.44-.21-.32-3.1a37.25,37.25,0,0,1,1.56-7.42l9.7-35Z" transform="translate(81.32 2)"/><path id="c-16" data-name="c" class="cls-17" d="M413.72,278.43A50.88,50.88,0,0,1,408,288.59c-4.36,5.7-7.22,5.23-7.22,5.23s-4.44.47-4.8-3a5.08,5.08,0,0,1,2.44-4.58,43.07,43.07,0,0,1,6-2.89c2.93-1.64,2.75-1.61,4.54-3.73,1.19-2.47.75-.72,4-10.5s4.65-15.24,4.73-15.24l3.49,1-4.29,14.27L415.38,274Z" transform="translate(81.32 2)"/><path class="cls-12" d="M417.7,248.64l-9.26,24.74a51.27,51.27,0,0,0-1.81,5.46,12.94,12.94,0,0,0,.27,4.82,22.34,22.34,0,0,1,.3,3.72,7,7,0,0,1-1.34,4.09c0,.08-.95,1.24-3.46,1.12-2.87-.49-3.1-2.59-3.1-2.59a14.19,14.19,0,0,1,.37-5.44c.64-3.39,6.7-14.5,9.1-22l5.35-16.37Z" transform="translate(81.32 2)"/><path id="e-7" data-name="e" class="cls-3" d="M421.47,153.62a89.19,89.19,0,0,1,8.29,11.92c4.65,7.83,4.84,8.15,7,14,1.55,5.73,1.56,7.66.49,10.86-1.38,2.58-2.74,3.12-4,3.17s-1.91-.29-2.83-1.72c-1.86-4.21.48-6.32,1.18-9.83s.41-.81.42-3.41a10.3,10.3,0,0,0-1.94-5.28,75.75,75.75,0,0,0-5.08-8.11c-4-6.2-6-9.6-6-9.6s-.43-1.39.51-2.06a1.8,1.8,0,0,1,1.93,0Z" transform="translate(81.32 2)"/><path id="e-8" data-name="e" class="cls-3" d="M424.06,152.38a88.7,88.7,0,0,1,8.28,11.92c4.65,7.83,4.85,8.15,7,14,1.55,5.72,1.56,7.65.49,10.85-1.39,2.58-2.74,3.12-4,3.17s-1.91-.29-2.84-1.72c-1.85-4.21.49-6.32,1.19-9.83s.41-.81.41-3.41a10.37,10.37,0,0,0-1.93-5.28A79,79,0,0,0,427.6,164c-4.05-6.19-6-9.6-6-9.6s-.43-1.38.5-2.06a1.81,1.81,0,0,1,1.94,0Z" transform="translate(81.32 2)"/><path id="e-9" data-name="e" class="cls-18" d="M402.53,146.15a88.65,88.65,0,0,1,9.76,10.74c5.63,7.15,5.87,7.45,8.78,13,2.27,5.48,2.54,7.39,1.89,10.7-1,2.74-2.31,3.45-3.55,3.66s-1.93,0-3-1.33c-2.39-3.94-.35-6.34-.11-9.9s.31-.86,0-3.44a10.31,10.31,0,0,0-2.6-5,75.33,75.33,0,0,0-6.09-7.39c-4.82-5.61-7.18-8.74-7.18-8.74s-.6-1.32.24-2.11a1.79,1.79,0,0,1,1.92-.2Z" transform="translate(81.32 2)"/><path id="f-7" data-name="f" class="cls-19" d="M414.69,146.16s6.19,10.11,8.43,14c2.73,4.26,5.23,10.28,7.6,13.47,2.87,3,5.74,3.54,7.75,5.47,2.3,2.07,2.72,3.07,2.83,4.8a3.54,3.54,0,0,1-4.65,3.28c-2.3-.29-4.84-4-4.84-4l-5.54-10.49c-4.92-10.15-14.76-25.12-14.76-25.12Z" transform="translate(81.32 2)"/><path id="e-10" data-name="e" class="cls-3" d="M427.26,152.49a88.7,88.7,0,0,1,8.28,11.92c4.65,7.83,4.85,8.15,7,14,1.55,5.73,1.57,7.66.49,10.86-1.38,2.58-2.73,3.12-4,3.17s-1.91-.29-2.84-1.72c-1.86-4.21.48-6.32,1.19-9.83s.41-.81.41-3.41a10.3,10.3,0,0,0-1.94-5.28,73.81,73.81,0,0,0-5.08-8.11c-4-6.2-6-9.6-6-9.6s-.43-1.39.51-2.06a1.81,1.81,0,0,1,1.94,0Z" transform="translate(81.32 2)"/><path id="f-8" data-name="f" class="cls-3" d="M395.68,147.52s7.6,9.1,10.38,12.61c3.32,3.81,6.67,9.41,9.49,12.22,3.28,2.58,6.19,2.65,8.46,4.28,2.58,1.7,3.14,2.63,3.5,4.33a3.54,3.54,0,0,1-4.12,3.92c-2.31.05-5.37-3.22-5.37-3.22l-7-9.57c-6.35-9.32-18.28-22.69-18.28-22.69Z" transform="translate(81.32 2)"/><path id="e-11" data-name="e" class="cls-20" d="M400,148.18a88.94,88.94,0,0,1,9.62,10.87c5.53,7.23,5.76,7.52,8.6,13.11,2.21,5.5,2.45,7.42,1.76,10.72-1.07,2.72-2.35,3.42-3.6,3.62s-1.93-.07-3-1.38c-2.33-4-.26-6.34,0-9.9s.31-.86,0-3.43a10.38,10.38,0,0,0-2.54-5,74.58,74.58,0,0,0-6-7.47c-4.75-5.68-7.07-8.83-7.07-8.83a2,2,0,0,1,.27-2.11,1.81,1.81,0,0,1,1.93-.18Z" transform="translate(81.32 2)"/><path id="f-9" data-name="f" class="cls-3" d="M392.78,148.84s7.6,9.1,10.38,12.61c3.32,3.82,6.67,9.41,9.49,12.22,3.28,2.58,6.19,2.66,8.46,4.28,2.58,1.7,3.14,2.63,3.5,4.33a3.54,3.54,0,0,1-4.12,3.92c-2.31.05-5.37-3.22-5.37-3.22l-7-9.57c-6.35-9.32-18.28-22.69-18.28-22.69Z" transform="translate(81.32 2)"/><path id="e-12" data-name="e" class="cls-21" d="M406.32,144.5A88.77,88.77,0,0,1,416,155.33c5.56,7.21,5.8,7.5,8.66,13.07,2.23,5.5,2.48,7.42,1.8,10.72-1.06,2.72-2.34,3.43-3.58,3.63s-1.93-.06-3-1.36c-2.35-4-.28-6.34,0-9.91s.31-.85,0-3.43a10.43,10.43,0,0,0-2.56-5,77.57,77.57,0,0,0-6-7.44c-4.76-5.65-7.1-8.8-7.1-8.8a2,2,0,0,1,.26-2.11,1.82,1.82,0,0,1,1.93-.19Z" transform="translate(81.32 2)"/><path id="f-10" data-name="f" class="cls-3" d="M391.94,153s7.6,9.1,10.39,12.61c3.32,3.81,6.67,9.41,9.49,12.22,3.28,2.58,6.18,2.65,8.45,4.28,2.58,1.7,3.15,2.63,3.51,4.33a3.55,3.55,0,0,1-4.13,3.92c-2.31,0-5.36-3.22-5.36-3.22l-7-9.57c-6.35-9.32-18.28-22.69-18.28-22.69Z" transform="translate(81.32 2)"/><path id="f-11" data-name="f" class="cls-22" d="M394.26,160.42s7.92,9.87,10.82,13.67c3.47,4.14,6.88,10.14,9.84,13.21,3.5,2.85,6.71,3,9.13,4.85,2.76,1.9,3.34,2.89,3.65,4.69a3.88,3.88,0,0,1-4.77,3.93c-2.56-.05-5.76-3.61-5.76-3.61l-7.25-10.33c-6.53-10-19-24.56-19-24.56Z" transform="translate(81.32 2)"/><path id="g-3" data-name="g" class="cls-23" d="M391.86,168.56s1.1,1.32,10.38,13.23c8.49,13,9.78,15.5,9.78,15.5s1.36,2.52,2.75,3.27,3.74.67,4.45.13,1-.59,1.28-3.11a3.91,3.91,0,0,0-1.31-2.63,8.93,8.93,0,0,0-3.44-1.6,8,8,0,0,1-3.14-3c-2.06-3.23-3-4.81-6.42-9.52-4.47-6.23-8-10-12.06-14.9Z" transform="translate(81.32 2)"/><path id="f-12" data-name="f" class="cls-22" d="M391.45,166.32s7.24,10,9.87,13.81c3.2,4.2,6.17,10.16,8.93,13.3,3.33,3,6.59,3.41,8.91,5.31,2.66,2,3.16,3,3.33,4.73,0,2.34-2.58,4.08-5.21,3.37-2.6-.24-5.57-3.86-5.57-3.86l-6.52-10.37c-5.82-10-17.33-24.79-17.33-24.79Z" transform="translate(81.32 2)"/><path id="g-4" data-name="g" class="cls-3" d="M385.75,169.84s1,1.38,9.68,13.75c7.8,13.46,9,16,9,16s1.23,2.58,2.58,3.41,3.7.86,4.43.36,1.09-.54,1.45-3a4,4,0,0,0-1.17-2.7,9,9,0,0,0-3.36-1.77,8.06,8.06,0,0,1-3-3.12c-1.89-3.34-2.72-5-5.92-9.85-4.14-6.45-7.45-10.42-11.28-15.5Z" transform="translate(81.32 2)"/><path class="cls-24" d="M335.75,103.29a133.79,133.79,0,0,1,34.08,8.2l-.91,1.84a132.85,132.85,0,0,0-33.5-8C334.42,105.18,334.64,103.19,335.75,103.29Z" transform="translate(81.32 2)"/><path class="cls-25" d="M328.87,106.47a120.72,120.72,0,0,1,28.82,4.89c3.53,1,7,2.19,10.45,3.5l-.93,1.87a129.42,129.42,0,0,0-38.52-8.21c-1.21-.13-1-2,.18-2Z" transform="translate(81.32 2)"/><path class="cls-25" d="M333.93,110.63a128.89,128.89,0,0,1,32.51,7.63l-.78,1.57a128.19,128.19,0,0,0-32-7.49C332.63,112.27,332.84,110.53,333.93,110.63Z" transform="translate(81.32 2)"/><path class="cls-25" d="M365,121.06l-.93,1.85a124.1,124.1,0,0,0-39-7.72c-1.16-.07-1.17-2,.16-2A131.67,131.67,0,0,1,365,121.06Z" transform="translate(81.32 2)"/><path class="cls-25" d="M331.2,117.17a123.31,123.31,0,0,1,32.14,7.29l-.95,1.89a131.15,131.15,0,0,0-31.54-7.15c-1.21-.18-.93-2.13.35-2Z" transform="translate(81.32 2)"/><path class="cls-25" d="M361.46,128.2l-.92,1.84c-9.94-3.64-26.24-7.09-35.71-6.93-1-.08-.94-2,.09-2.07,11.87,0,24.28,2.71,36.54,7.16Z" transform="translate(81.32 2)"/><path class="cls-25" d="M332.29,125.45a118.49,118.49,0,0,1,27.32,6.45l-.93,1.84a112.31,112.31,0,0,0-26.63-6.23,1,1,0,1,1,.24-2.06Z" transform="translate(81.32 2)"/><path class="cls-25" d="M357.77,135.57l-.93,1.85a121.54,121.54,0,0,0-29.71-6.09,1.05,1.05,0,0,1,.18-2.09C337.54,129.63,348.68,132.39,357.77,135.57Z" transform="translate(81.32 2)"/><path class="cls-25" d="M326.38,133.7c7.58.05,20.85,2.84,29.37,5.88l-.92,1.85c-8.15-2.88-21.57-5.53-28.55-5.7A1,1,0,1,1,326.38,133.7Z" transform="translate(81.32 2)"/><path class="cls-25" d="M332.85,138.49a109.18,109.18,0,0,1,20.9,5.1l-.93,1.84a99.05,99.05,0,0,0-20.4-5A1,1,0,1,1,332.85,138.49Z" transform="translate(81.32 2)"/><path class="cls-25" d="M326.65,141.88c7.82.28,18,2.58,25.38,5.14l-.93,1.86c-6.84-2.36-16.6-4.65-24.48-4.94a1,1,0,1,1,0-2.06Z" transform="translate(81.32 2)"/><path id="h-78" data-name="h" class="cls-26" d="M341,136.26s16.37-3.46,15.36,5.71C352.15,149.53,341,136.26,341,136.26Z" transform="translate(81.32 2)"/><path id="h-79" data-name="h" class="cls-27" d="M344.55,146.74s13.29,8.6,15.61.14C359.07,138.75,344.55,146.74,344.55,146.74Z" transform="translate(81.32 2)"/><path id="h-80" data-name="h" class="cls-26" d="M354.6,135.57s15.34,3.77,10.61,11.33C358.44,151.74,354.6,135.57,354.6,135.57Z" transform="translate(81.32 2)"/><path id="h-81" data-name="h" class="cls-28" d="M354.31,151.13s13.15,7.51,14.75-.87C367.46,142.44,354.31,151.13,354.31,151.13Z" transform="translate(81.32 2)"/><path id="h-82" data-name="h" class="cls-29" d="M364.66,138.91s14.55,5.49,9,12.26C366.49,155.06,364.66,138.91,364.66,138.91Z" transform="translate(81.32 2)"/><path id="h-83" data-name="h" class="cls-26" d="M362.59,155.27s12.47,7.63,13.84-.74C374.82,146.69,362.59,155.27,362.59,155.27Z" transform="translate(81.32 2)"/><path id="h-84" data-name="h" class="cls-26" d="M374.21,143.23s13,8,6.25,13.23C372.66,158.66,374.21,143.23,374.21,143.23Z" transform="translate(81.32 2)"/><path id="h-85" data-name="h" class="cls-26" d="M369.17,158.71s11.91,9.66,14.79,1.59C383.59,152.24,369.17,158.71,369.17,158.71Z" transform="translate(81.32 2)"/><path id="h-86" data-name="h" class="cls-26" d="M376.16,163.19s10,10.34,13.7,3.19C390.47,158.85,376.16,163.19,376.16,163.19Z" transform="translate(81.32 2)"/><path id="h-87" data-name="h" class="cls-26" d="M382.12,149.27s12.7,8,6,13C380.37,164.32,382.12,149.27,382.12,149.27Z" transform="translate(81.32 2)"/><path id="h-88" data-name="h" class="cls-26" d="M390,154.74s11.56,9.49,4.27,13.75C386.37,169.65,390,154.74,390,154.74Z" transform="translate(81.32 2)"/><path id="h-89" data-name="h" class="cls-26" d="M382.87,169.12s10,11.19,13.76,3.29C397.28,164.15,382.87,169.12,382.87,169.12Z" transform="translate(81.32 2)"/><path id="h-90" data-name="h" class="cls-26" d="M353.39,111.68s17.93-3.44,16.55,7C365.1,127.17,353.39,111.68,353.39,111.68Z" transform="translate(81.32 2)"/><path id="h-91" data-name="h" class="cls-26" d="M368.26,110.59s16.47,7.15,9.65,14.53C369.34,129.09,368.26,110.59,368.26,110.59Z" transform="translate(81.32 2)"/><path id="h-92" data-name="h" class="cls-26" d="M377.67,114.79s16.86,8.51,9.45,16.21C378,134.93,377.67,114.79,377.67,114.79Z" transform="translate(81.32 2)"/><path id="h-93" data-name="h" class="cls-26" d="M387.42,119.56s15.69,9.53,8,16.46C386.31,139.15,387.42,119.56,387.42,119.56Z" transform="translate(81.32 2)"/><path id="h-94" data-name="h" class="cls-26" d="M397.57,125.91s14,11,5.42,16.32C393.68,143.88,397.57,125.91,397.57,125.91Z" transform="translate(81.32 2)"/><path id="h-95" data-name="h" class="cls-30" d="M405.29,131.52s13.52,11.63,4.88,16.75C400.86,149.61,405.29,131.52,405.29,131.52Z" transform="translate(81.32 2)"/><path id="h-96" data-name="h" class="cls-31" d="M412.63,136.84s13.62,11.46,5,16.63C408.35,154.9,412.63,136.84,412.63,136.84Z" transform="translate(81.32 2)"/><path id="h-97" data-name="h" class="cls-32" d="M420.3,143.58s12,13,2.89,17.12C413.87,161,420.3,143.58,420.3,143.58Z" transform="translate(81.32 2)"/><path id="h-98" data-name="h" class="cls-26" d="M336.76,123s10.46,14.42,16.19,6.21C355,120,336.76,123,336.76,123Z" transform="translate(81.32 2)"/><path id="h-99" data-name="h" class="cls-26" d="M344.86,115.86s17.32-.07,14.27,10C353.19,133.37,344.86,115.86,344.86,115.86Z" transform="translate(81.32 2)"/><path id="h-100" data-name="h" class="cls-33" d="M345.53,132.89s16.35,8.53,18-1.72C361.25,121.72,345.53,132.89,345.53,132.89Z" transform="translate(81.32 2)"/><path id="h-101" data-name="h" class="cls-26" d="M356.67,117.11s18,4.61,12.31,13.26C360.92,135.84,356.67,117.11,356.67,117.11Z" transform="translate(81.32 2)"/><path id="h-102" data-name="h" class="cls-26" d="M356.88,136.46s16.37,9.18,18.16-1.55C372.89,125,356.88,136.46,356.88,136.46Z" transform="translate(81.32 2)"/><path id="h-103" data-name="h" class="cls-34" d="M367.17,141.75s15.36,8.86,17.3-1C382.65,131.53,367.17,141.75,367.17,141.75Z" transform="translate(81.32 2)"/><path id="h-104" data-name="h" class="cls-26" d="M368.21,120.2s18.75,7.17,11.65,16.06C370.59,141.37,368.21,120.2,368.21,120.2Z" transform="translate(81.32 2)"/><path id="h-105" data-name="h" class="cls-26" d="M380.88,126.91s16.45,9.56,8.29,16.41C379.61,146.4,380.88,126.91,380.88,126.91Z" transform="translate(81.32 2)"/><path id="h-106" data-name="h" class="cls-35" d="M376.4,146.44s14,10.7,17,.94C392.57,137.85,376.4,146.44,376.4,146.44Z" transform="translate(81.32 2)"/><path id="h-107" data-name="h" class="cls-26" d="M391.63,133s15.42,11.2,6.61,17.3C388.41,152.49,391.63,133,391.63,133Z" transform="translate(81.32 2)"/><path id="h-108" data-name="h" class="cls-26" d="M400.77,139.12s13.88,11.62,5.12,16.85C396.43,157.4,400.77,139.12,400.77,139.12Z" transform="translate(81.32 2)"/><path id="h-109" data-name="h" class="cls-36" d="M384.69,151.93s13.05,12.71,17.57,3.55C402.86,146,384.69,151.93,384.69,151.93Z" transform="translate(81.32 2)"/><path id="h-110" data-name="h" class="cls-26" d="M429.49,314.23s-12.44,14.19-18.82,5.61C408.56,310.44,429.49,314.23,429.49,314.23Z" transform="translate(81.32 2)"/><path id="h-111" data-name="h" class="cls-37" d="M423.42,322.19s-13.67,15.27-19.46,5.33C402.54,316.89,423.42,322.19,423.42,322.19Z" transform="translate(81.32 2)"/><path id="h-112" data-name="h" class="cls-38" d="M414.45,330.26s-12,12.47-16.53,3.84C397.11,325,414.45,330.26,414.45,330.26Z" transform="translate(81.32 2)"/><path id="h-113" data-name="h" class="cls-39" d="M404.11,299.2s-11.57,12.89-2.63,16.76C410.59,316.11,404.11,299.2,404.11,299.2Z" transform="translate(81.32 2)"/><path id="h-114" data-name="h" class="cls-26" d="M413.64,313.65s-8.79,15.86-15.59,8.29C394.85,312.94,413.64,313.65,413.64,313.65Z" transform="translate(81.32 2)"/><path id="h-115" data-name="h" class="cls-40" d="M398.15,310.63s-10.6,13.69-16,5.6C380.35,307.29,398.15,310.63,398.15,310.63Z" transform="translate(81.32 2)"/><path id="h-116" data-name="h" class="cls-41" d="M398.12,306.62s-13,12.24-4.19,17C403.21,324.64,398.12,306.62,398.12,306.62Z" transform="translate(81.32 2)"/><path id="h-117" data-name="h" class="cls-42" d="M407,324s-11.94,13.57-17.11,4.85C388.59,319.48,407,324,407,324Z" transform="translate(81.32 2)"/><path id="h-118" data-name="h" class="cls-43" d="M383.48,300.24s-12.61,11.05-5,16C386.78,317.58,383.48,300.24,383.48,300.24Z" transform="translate(81.32 2)"/><path id="h-119" data-name="h" class="cls-44" d="M391.1,316.34s-11,12.38-15.64,4.32C374.33,312,391.1,316.34,391.1,316.34Z" transform="translate(81.32 2)"/><path id="h-120" data-name="h" class="cls-45" d="M375.85,306.09s-11.74,10.38-4,14.71C380.16,321.83,375.85,306.09,375.85,306.09Z" transform="translate(81.32 2)"/><path id="h-121" data-name="h" class="cls-46" d="M385.72,322.52s-13.15,11.28-16.83,2.26C369,315.67,385.72,322.52,385.72,322.52Z" transform="translate(81.32 2)"/><path id="h-122" data-name="h" class="cls-47" d="M391,314.12s-14.51,10.64-6.24,16.46C394,332.66,391,314.12,391,314.12Z" transform="translate(81.32 2)"/><path id="h-123" data-name="h" class="cls-48" d="M382.68,321.16s-13.83,10.44-5.8,15.95C385.8,339,382.68,321.16,382.68,321.16Z" transform="translate(81.32 2)"/><path id="h-124" data-name="h" class="cls-49" d="M368.46,313.44s-12.18,12.33-3.44,16.62C374.11,330.65,368.46,313.44,368.46,313.44Z" transform="translate(81.32 2)"/><path id="h-125" data-name="h" class="cls-26" d="M445.45,185s6.12,16.94-4.19,17.14C432.27,198.73,445.45,185,445.45,185Z" transform="translate(81.32 2)"/><path id="h-126" data-name="h" class="cls-26" d="M449,195.11s4.83,17.47-5.58,16.92C434.66,207.91,449,195.11,449,195.11Z" transform="translate(81.32 2)"/><path id="h-127" data-name="h" class="cls-26" d="M451.89,205.29s3.89,17.46-7.06,16.31C435.85,217,451.89,205.29,451.89,205.29Z" transform="translate(81.32 2)"/><path id="h-128" data-name="h" class="cls-26" d="M453.66,215.49s2,19-8.14,16.73C437.5,226.49,453.66,215.49,453.66,215.49Z" transform="translate(81.32 2)"/><path id="h-129" data-name="h" class="cls-26" d="M454.74,226s1.35,18.14-8.8,15.62C438.09,235.9,454.74,226,454.74,226Z" transform="translate(81.32 2)"/><path id="h-130" data-name="h" class="cls-50" d="M427.22,175.67s12.28,14.86,1.61,18.33C418.27,193.44,427.22,175.67,427.22,175.67Z" transform="translate(81.32 2)"/><path id="h-131" data-name="h" class="cls-26" d="M415.76,188.67s5.69,17.25,13.95,11.17C434.66,191.65,415.76,188.67,415.76,188.67Z" transform="translate(81.32 2)"/><path id="h-132" data-name="h" class="cls-26" d="M435,186.93s8.49,16.25-1.91,17.78C423.54,202.39,435,186.93,435,186.93Z" transform="translate(81.32 2)"/><path id="h-133" data-name="h" class="cls-26" d="M415.75,191.81s10.29,13.41.91,15.65C407.49,206.29,415.75,191.81,415.75,191.81Z" transform="translate(81.32 2)"/><path id="h-134" data-name="h" class="cls-26" d="M405.1,201.75s4.35,15,11.07,9.82C420.26,204.53,405.1,201.75,405.1,201.75Z" transform="translate(81.32 2)"/><path id="h-135" data-name="h" class="cls-26" d="M420.94,201.18s6.69,14.79-2,15.38C411.11,213.86,420.94,201.18,420.94,201.18Z" transform="translate(81.32 2)"/><path id="h-136" data-name="h" class="cls-26" d="M419.21,198.44s4.81,17.39,13.13,11.71C437.51,202.23,419.21,198.44,419.21,198.44Z" transform="translate(81.32 2)"/><path id="h-137" data-name="h" class="cls-26" d="M440.21,198.38s5.54,18.5-5.49,18.1C425.33,212.27,440.21,198.38,440.21,198.38Z" transform="translate(81.32 2)"/><path id="h-138" data-name="h" class="cls-26" d="M408,209.92s2.84,14.52,10.23,10.44C423.12,214.24,408,209.92,408,209.92Z" transform="translate(81.32 2)"/><path id="h-139" data-name="h" class="cls-26" d="M423.52,211.15s5.64,14-3.21,14C412.52,222.21,423.52,211.15,423.52,211.15Z" transform="translate(81.32 2)"/><path id="h-140" data-name="h" class="cls-26" d="M422.67,207.56s1.81,18.16,11.23,14C440.54,214.54,422.67,207.56,422.67,207.56Z" transform="translate(81.32 2)"/><path id="h-141" data-name="h" class="cls-26" d="M443.68,209.52s3.2,19.54-7.07,17.9C428.28,222.05,443.68,209.52,443.68,209.52Z" transform="translate(81.32 2)"/><path id="h-142" data-name="h" class="cls-26" d="M409.63,217.29s2,15.92,9.66,11.94C424.54,222.9,409.63,217.29,409.63,217.29Z" transform="translate(81.32 2)"/><path id="h-143" data-name="h" class="cls-51" d="M425.4,221s4.18,14.64-4.56,13.93C413.44,231.25,425.4,221,425.4,221Z" transform="translate(81.32 2)"/><path id="h-144" data-name="h" class="cls-52" d="M424.82,218s.55,18.14,10.1,14.62C441.92,226.15,424.82,218,424.82,218Z" transform="translate(81.32 2)"/><path id="h-145" data-name="h" class="cls-26" d="M445.51,221.61s.31,19.27-9.6,16C428.45,231.11,445.51,221.61,445.51,221.61Z" transform="translate(81.32 2)"/><path id="h-146" data-name="h" class="cls-26" d="M455.77,235.58s-.46,18.45-10.13,14.92C438.54,244,455.77,235.58,455.77,235.58Z" transform="translate(81.32 2)"/><path id="h-147" data-name="h" class="cls-26" d="M411.34,225.93s-.46,15.33,8,12.9C425.69,233.77,411.34,225.93,411.34,225.93Z" transform="translate(81.32 2)"/><path id="h-148" data-name="h" class="cls-26" d="M427.3,231.49s1.88,16-7.4,13.72C412.58,240.1,427.3,231.49,427.3,231.49Z" transform="translate(81.32 2)"/><path id="h-149" data-name="h" class="cls-26" d="M425.49,227.52s-.86,18.39,8.85,15.61C441.77,237.17,425.49,227.52,425.49,227.52Z" transform="translate(81.32 2)"/><path id="h-150" data-name="h" class="cls-26" d="M446.76,232.7s-1.43,18.4-10.67,14.33C429.5,240.1,446.76,232.7,446.76,232.7Z" transform="translate(81.32 2)"/><path id="h-151" data-name="h" class="cls-53" d="M411.75,234.59s-2.13,15.38,6.5,13.7C425.13,243.78,411.75,234.59,411.75,234.59Z" transform="translate(81.32 2)"/><path id="h-152" data-name="h" class="cls-26" d="M426.89,241.18s.72,16-7.31,13.16C413.45,248.81,426.89,241.18,426.89,241.18Z" transform="translate(81.32 2)"/><path id="h-153" data-name="h" class="cls-26" d="M411.26,243.13s-2.46,14.84,6.28,13C424.57,251.6,411.26,243.13,411.26,243.13Z" transform="translate(81.32 2)"/><path id="h-154" data-name="h" class="cls-54" d="M455.69,246.45s-2.56,17.13-11.24,12.71C438.52,252.24,455.69,246.45,455.69,246.45Z" transform="translate(81.32 2)"/><path class="cls-55" d="M422.69,282.11s9.69.12,16.16-1.94c8.49-2.32,11.87-10.16,11.87-10.16a7.83,7.83,0,0,1,1.17,4.35c-.08,2.32-1.74,7.69-5.91,13.36-4.32,7-7.26,15.24-10.75,20.65-2.79,4.88-8.67,9.29-8.67,9.29S407.83,315.42,406,315c-2.41-.37-19-4.18-22.67-4.39s-12.15.34-12.15.34,3-5.47,4.4-6.53c2.87-2.37,6.33-3.33,9.92-6.8,2-2.15,5.25-6,7.11-8,2.32-2.22,4.07-4.4,6.6-5.82,2.06-1.35,23.46-1.7,23.46-1.7Z" transform="translate(81.32 2)"/><path class="cls-7" d="M380.36,301.71s6.88.18,10.2.6c3.66.58,11.53,1.53,17.85,2.18a158,158,0,0,0,16.9,1.06L437,305c-.38.69-1.41,2.55-2.44,4a24.75,24.75,0,0,1-4.48,5.27,43.94,43.94,0,0,1-3.54,3.08c-1.39-.16-10.2-1.21-13.75-1.7-5.85-.57-8.82-1.36-15.55-2.78-3.52-.72-11.68-2.44-13.8-2.55-2.4-.2-10.91.25-11.8.33.56-.92,1.23-2,2.16-3.6,1.32-2.23,2.34-2.8,4.2-4,.73-.48,2.35-1.32,2.41-1.35Z" transform="translate(81.32 2)"/><path class="cls-1" d="M443.87,290.87c-.54,1-2,3.89-3.25,6.47-1.63,3.53-2.54,5.46-3.73,7.78-2.59.19-5.13.27-11.58.47a158,158,0,0,1-16.9-1.06c-6.32-.64-14.19-1.59-17.86-2.17-3.31-.42-10.3-.59-10.3-.59a44.83,44.83,0,0,0,4.55-3.11c1.79-1.66,2.62-2.85,4.08-4.39,1.89-.15,4.54-.17,7.43-.37,5.05-.29,12.82.24,17.16.24a167.65,167.65,0,0,0,17.83-.86c8.38-.61,10.4-2,12.57-2.41Z" transform="translate(81.32 2)"/><path class="cls-56" d="M450.85,271.75a23,23,0,0,1-4.64,5.7c-3.51,2.5-4.41,3-11.19,4.59-6.1,1-7.48.69-15.62.94-7.93.25-10.22.43-15.35.85a39.55,39.55,0,0,0-4.38.58" transform="translate(81.32 2)"/></g><path class="cls-57" d="M288.84,318.43a21.13,21.13,0,0,0-3.5.37c-7.78,1.34-13.63,5.9-33,10.47a66.4,66.4,0,0,1-21.36,2,1.61,1.61,0,0,1-1.06-1.5l-1.9-1.09a3.63,3.63,0,0,0,0,3.4,4.41,4.41,0,0,0,1.22,1.86c14,10,14.36,12.1,22.41,19.7,4.44,4.37,5.78,5.76,20.56,3.41,2.91,4.73,3.55,7.2,11.95,4.75l1.42,3.55c1.3,2.44,3.1,2.47,7.64,1.5,11.78-2.53,15.19-5.4,28.64-5.7,13.46.3,16.87,3.17,28.65,5.7,4.55,1,6.34.94,7.65-1.5l1.41-3.55c8.41,2.45,9,0,11.95-4.75,14.79,2.35,16.12,1,20.56-3.41,8.05-7.6,8.41-9.74,22.41-19.7a4.3,4.3,0,0,0,1.21-1.86,3.59,3.59,0,0,0,0-3.4l-1.9,1.09a1.6,1.6,0,0,1-1.05,1.5,66.34,66.34,0,0,1-21.36-2c-19.37-4.57-25.22-9.13-33-10.47-3.11-.55-6.52-.76-8,1.26-1.67,2-3.07,5.92-5.46,9.52-4.5-1.42-8.06-2.74-11.74-3.51a66.83,66.83,0,0,0-22.69,0c-3.67.77-7.24,2.09-11.74,3.51-2.39-3.6-3.78-7.48-5.46-9.52-.9-1.26-2.58-1.65-4.46-1.63Z" transform="translate(81.32 2)"/><path class="cls-58" d="M287.4,328.05a21.36,21.36,0,0,1,2.18,5.74" transform="translate(81.32 2)"/><path class="cls-1" d="M240.47,342.36c4.95-.54,6.39-.67,10.48-1.35,3.84-.7,7-1.4,10.46-2.34,1,1.56,2,3.05,3.1,4.59a36.2,36.2,0,0,1,2.91,5.31c-3.11.28-5.68.75-8.94,1.17-2.81.36-6,.8-9.31,1.21-1.26-1.24-2.23-2.25-3.6-3.67-1.67-1.69-2.95-3-5.1-4.92Z" transform="translate(81.32 2)"/><path class="cls-1" d="M275.19,341.3a65.44,65.44,0,0,0-9.34,2.37c1.9,3.3,3,6.43,4.29,9.18,3.84-.87,5.79-1.28,9.5-2l-1.88-4.05Z" transform="translate(81.32 2)"/><path class="cls-7" d="M249.15,350.94c3-.37,6-.78,9.13-1.19,3.63-.48,6.06-.89,9.39-1.22.69,1.59,1,2.45,1.86,4.25.68,1.5,1.58,2.92,2.26,4.13-2.21.31-3.89.57-6.32.83a30.94,30.94,0,0,1-5.67.16,9.15,9.15,0,0,1-5.46-2c-1.2-1-3.1-2.9-5.19-4.92Z" transform="translate(81.32 2)"/><path class="cls-7" d="M270.14,352.85c3.31-.78,6.28-1.4,9.78-2.1.83,2,1.15,2.92,1.86,5s1.36,4,2,5.94a24.26,24.26,0,0,1-4.14.83,5.49,5.49,0,0,1-4-.92,17.9,17.9,0,0,1-3.27-4.56c-.88-1.57-1.48-2.52-2.29-4.18Z" transform="translate(81.32 2)"/><path class="cls-1" d="M319.93,337.68a51.29,51.29,0,0,0-6.77.76c-5.61,1.37-9,2.54-12.8,3.83-6.79,2.27-8.93,3.31-12.75,4.48-3,.93-5.17,1.43-7.92,2.06,1.32,3.14,2.31,6,3.5,9.42a76,76,0,0,0,9.67-2.25c3.86-1.27,7.26-2.35,11.42-3.62a77.76,77.76,0,0,1,11-2.51c1.91-.18,3.3-.29,4.75-.34h0l1.86,0,1.87,0h0c1.45.05,2.84.16,4.76.34a77.59,77.59,0,0,1,10.94,2.51c4.17,1.27,7.56,2.35,11.42,3.62a76.75,76.75,0,0,0,9.67,2.25c1.19-3.42,2.18-6.28,3.51-9.42-2.76-.63-4.9-1.13-7.93-2.06-3.82-1.17-6-2.21-12.75-4.48-3.84-1.29-7.19-2.46-12.8-3.83a51.29,51.29,0,0,0-6.77-.76,35,35,0,0,0-3.83,0Z" transform="translate(81.32 2)"/><path class="cls-7" d="M320.22,349.47h0A46,46,0,0,0,310,350.82c-7.88,1.83-14.76,4.53-19.29,5.77-2.67.67-5,1.15-7.55,1.66a74.88,74.88,0,0,0,2.74,7.3c1,1.66,2.46,1.85,4,1.66a68.91,68.91,0,0,0,7.15-1.49c5.07-1.36,9.2-2.78,14.05-3.77a56.92,56.92,0,0,1,21.35,0c4.84,1,9,2.41,14.05,3.77a69.45,69.45,0,0,0,7.15,1.49c1.58.19,3,0,4-1.66a77.62,77.62,0,0,0,2.73-7.3c-2.58-.51-4.89-1-7.55-1.66-4.53-1.24-11.41-3.94-19.29-5.77a46.56,46.56,0,0,0-10.19-1.34h-3.25Z" transform="translate(81.32 2)"/><path class="cls-58" d="M356.25,328.18a35.18,35.18,0,0,0-2.22,5.61" transform="translate(81.32 2)"/><path class="cls-1" d="M403.22,342.36c-5-.54-6.39-.67-10.48-1.35-3.84-.7-7-1.4-10.46-2.34-1,1.56-2,3.05-3.1,4.59a37.19,37.19,0,0,0-2.91,5.31c3.11.28,5.68.75,9,1.17,2.8.36,6,.8,9.3,1.21,1.27-1.24,2.23-2.25,3.6-3.67,1.68-1.69,2.95-3,5.1-4.92Z" transform="translate(81.32 2)"/><path class="cls-1" d="M368.5,341.3a65.44,65.44,0,0,1,9.34,2.37c-1.9,3.3-3,6.43-4.29,9.18-3.83-.87-5.79-1.28-9.5-2l1.88-4.05Z" transform="translate(81.32 2)"/><path class="cls-7" d="M394.54,350.94c-3-.37-6-.78-9.13-1.19-3.62-.48-6.06-.89-9.39-1.22-.69,1.59-1,2.45-1.86,4.25-.68,1.5-1.58,2.92-2.25,4.13,2.2.31,3.89.57,6.31.83a30.94,30.94,0,0,0,5.67.16,9.12,9.12,0,0,0,5.46-2c1.2-1,3.1-2.9,5.19-4.92Z" transform="translate(81.32 2)"/><path class="cls-7" d="M373.55,352.85c-3.31-.78-6.28-1.4-9.77-2.1-.84,2-1.16,2.92-1.87,5s-1.36,4-2,5.94a24,24,0,0,0,4.13.83,5.49,5.49,0,0,0,4-.92,17.65,17.65,0,0,0,3.27-4.56c.88-1.57,1.49-2.52,2.29-4.18Z" transform="translate(81.32 2)"/><path class="cls-59" d="M273,336.71c.79,2.21,2.51,5,3.63,7.38.48.92,2,4.15,3.15,7.11" transform="translate(81.32 2)"/><path class="cls-59" d="M258.79,334.38c1.84,2.89,3.57,5.54,5.54,8.37a34.81,34.81,0,0,1,3.23,6.17" transform="translate(81.32 2)"/><path class="cls-59" d="M384.86,334.68c-1.84,2.89-3.53,5.24-5.5,8.07a34.81,34.81,0,0,0-3.23,6.17" transform="translate(81.32 2)"/><path class="cls-59" d="M370.64,336.5c-.79,2.2-2.51,5.23-3.63,7.6-.48.91-2,4.15-3.15,7.11" transform="translate(81.32 2)"/><path class="cls-58" d="M228.93,329.23a1.67,1.67,0,0,0,.13,1.59,2.76,2.76,0,0,0,1.75,1.35A68.84,68.84,0,0,0,248.87,331a168.41,168.41,0,0,0,21.45-6.17c4.39-1.58,9.61-3.82,12.74-4.67,3.95-1.06,7.8-1.73,9.17-.05,1,1.54-2.29,3.35-5.59,4.44a67.35,67.35,0,0,1-11.32,2.27,114.27,114.27,0,0,0-12.05,2.67c-2.28.74-4.89,2.6-4.61,4.22.47,2.12,3.49,1.52,6.19.63l17.88-6.83c2-.74,4.23-.49,4.69.6s.08,2.67-2.67,3.23l-8.56,1.44c-3,.55-3.38,2.76-3.15,3.55s1.49,2,5.15,1.12c8.4-2.06,14.25-5,19.68-6.65,13.22-4.48,15.68-4.82,24-4.86,8,0,10.53.3,24,4.86,5.43,1.67,11.28,4.59,19.68,6.65,3.66.87,4.85-.42,5.11-1.24s-.2-2.54-3.11-3.43l-8.56-1.44c-2.75-.56-3.07-2.11-2.67-3.23s2.65-1.34,4.69-.6l17.88,6.83c2.7.89,5.85,1.58,6.32-.54.28-1.62-1.81-3.44-4.74-4.31a114.27,114.27,0,0,0-12.05-2.67,67.35,67.35,0,0,1-11.32-2.27c-3.3-1.09-6.58-2.86-5.63-4.44,1.58-1.72,5.52-1.05,9.21.05,3.13.85,8.36,3.09,12.74,4.67A168.41,168.41,0,0,0,394.82,331a68.84,68.84,0,0,0,18.06,1.16,2.76,2.76,0,0,0,1.75-1.35,1.64,1.64,0,0,0,.13-1.59" transform="translate(81.32 2)"/></svg>