<svg id="flag-icons-ro" xmlns="http://www.w3.org/2000/svg" viewBox="0 0 640 480"><defs><style>.cls-1{fill:#d00;}.cls-2{fill:#ffce00;}.cls-10,.cls-11,.cls-12,.cls-13,.cls-14,.cls-15,.cls-16,.cls-17,.cls-18,.cls-19,.cls-20,.cls-21,.cls-22,.cls-23,.cls-24,.cls-25,.cls-26,.cls-27,.cls-28,.cls-29,.cls-3,.cls-30,.cls-5,.cls-6,.cls-7,.cls-8,.cls-9{fill:#ffc709;}.cls-10,.cls-11,.cls-12,.cls-13,.cls-14,.cls-15,.cls-16,.cls-17,.cls-18,.cls-19,.cls-20,.cls-21,.cls-22,.cls-23,.cls-24,.cls-25,.cls-26,.cls-27,.cls-28,.cls-29,.cls-3,.cls-30,.cls-31,.cls-4,.cls-5,.cls-6,.cls-8,.cls-9{stroke:#000;}.cls-3,.cls-31,.cls-32,.cls-33,.cls-34,.cls-6{stroke-miterlimit:10;}.cls-10,.cls-3{stroke-width:1.28px;}.cls-10,.cls-11,.cls-13,.cls-14,.cls-15,.cls-16,.cls-17,.cls-18,.cls-19,.cls-20,.cls-21,.cls-22,.cls-23,.cls-24,.cls-25,.cls-26,.cls-27,.cls-28,.cls-29,.cls-30,.cls-4,.cls-5,.cls-8,.cls-9{stroke-linejoin:round;}.cls-4{stroke-width:2.56px;}.cls-5,.cls-6{stroke-width:2.81px;}.cls-8{stroke-width:3.63px;}.cls-9{stroke-width:1.21px;}.cls-11,.cls-12{stroke-width:6.25px;}.cls-13,.cls-14,.cls-32{stroke-linecap:round;}.cls-13{stroke-width:1.05px;}.cls-14,.cls-32,.cls-33{stroke-width:1.02px;}.cls-15{stroke-width:6.29px;}.cls-16{stroke-width:1.17px;}.cls-17{stroke-width:1.12px;}.cls-18{stroke-width:1.15px;}.cls-19{stroke-width:1.32px;}.cls-20{stroke-width:1.37px;}.cls-21{stroke-width:1.36px;}.cls-22{stroke-width:1.53px;}.cls-23{stroke-width:1.29px;}.cls-24{stroke-width:1.33px;}.cls-25{stroke-width:1.35px;}.cls-26{stroke-width:1.23px;}.cls-27{stroke-width:1.44px;}.cls-28{stroke-width:1.14px;}.cls-29{stroke-width:1.34px;}.cls-30{stroke-width:1.16px;}.cls-31,.cls-34{stroke-width:0.64px;}.cls-32,.cls-33,.cls-34{fill:none;stroke:#ffc709;}</style></defs><path d="M0,0H640V165.12H0Z"/><path class="cls-1" d="M0,159.61H640V326.22H0Z"/><path class="cls-2" d="M0,321H640V480H0Z"/><path class="cls-1" d="M418.36,238.82c0,52.26-41.92,94.63-93.63,94.63s-93.63-42.37-93.63-94.63S273,144.2,324.73,144.2,418.36,186.57,418.36,238.82Z"/><path id="a" class="cls-3" d="M329.42,354l-29,13.69-3.07-2.3,27.2-12.82Z"/><path id="a-2" class="cls-3" d="M332.49,356.33l-29,13.7-3.06-2.3,27.19-12.82Z"/><path id="a-3" class="cls-3" d="M335.55,358.62l-29,13.69L303.49,370l27.19-12.82Z"/><path id="a-4" class="cls-3" d="M338.61,360.91l-29,13.7-3.06-2.3,27.22-12.82Z"/><path id="a-5" class="cls-3" d="M341.67,363.21l-29,13.69-3.06-2.3,27.19-12.82Z"/><path id="a-6" class="cls-3" d="M319.82,354l29,13.69,3.06-2.3L324.69,352.6Z"/><path id="a-7" class="cls-3" d="M316.77,356.28l29,13.7,3.06-2.3-27.19-12.82Z"/><path id="a-8" class="cls-3" d="M313.62,358.63l29,13.69,3.06-2.3L318.49,357.2Z"/><path id="a-9" class="cls-3" d="M310.55,360.91l29,13.69,3.06-2.3-27.22-12.82Z"/><path id="a-10" class="cls-3" d="M307.5,363.18l29,13.69,3.06-2.3-27.19-12.82Z"/><path class="cls-4" d="M326,160.07l-41.18,2.21v24.26L326,188.75h4.46l34.34-5V165.12l-34.34-5.05Z"/><rect class="cls-5" x="313.9" y="201.42" width="21.42" height="121.25" rx="3.61"/><path class="cls-6" d="M373.05,240.22a66.84,66.84,0,0,1-84.62,9.51l-8.56,12.66a82.12,82.12,0,0,0,104.06-11.45Z"/><path class="cls-6" d="M316.92,186l-59,108.93,66.78-86.16,66.77,86.16L332.47,186l-7.8,10.94Z"/><path class="cls-7" d="M326,161.22l-28.29,1.36-11.74,4.7v14.24l11.59,4.76L326,187.79h4.34l33.38-4.89v-17l-33.38-4.67Z"/><path class="cls-8" d="M324.6,182.76h0a9.8,9.8,0,0,1,9.8,9.8V193a9.8,9.8,0,0,1-9.8,9.8h0a9.8,9.8,0,0,1-9.8-9.8v-.48A9.8,9.8,0,0,1,324.6,182.76Z"/><path class="cls-9" d="M328.77,192.64a4.16,4.16,0,1,1-4.17-4.15h0a4.14,4.14,0,0,1,4.16,4.14Z"/><g id="b"><path class="cls-7" d="M248.36,339.15,211.3,297.71l-14.55-52,5.18-48,23.72-46,36.66-28.29,21.92-8.17,6.18,9,10.76,3.19L295,132.62,294.2,146,256.77,170.4,234,208.28l-2.19,42.64L243.18,288l43.44,41.44Z"/><path id="c" class="cls-10" d="M202.5,279.46a52.06,52.06,0,0,0,5.34,10.39c4.11,5.87,7,5.52,7,5.52s4.42.65,4.92-2.8a5.09,5.09,0,0,0-2.24-4.67,44,44,0,0,0-5.92-3.13c-2.87-1.76-2.69-1.73-4.39-3.92-1.09-2.52-.72-.75-3.52-10.65s-4-15.42-4.1-15.42l-3.52.81,3.7,14.43,1.29,4.91Z"/><path id="d" class="cls-10" d="M200.52,245.68l7.67,25.6a51.86,51.86,0,0,1,1.46,5.64,12.68,12.68,0,0,1-.58,4.78,24,24,0,0,0-.53,3.68,7.47,7.47,0,0,0,1.08,4.22c0,.07.87,1.33,3.38,1.47,2.88-.18,3.24-2.25,3.24-2.25s.44-.23.22-3.11a37.38,37.38,0,0,0-1.83-7.36l-11-34.61Z"/><path id="d-2" class="cls-10" d="M195.82,239.38l6.74,25.9a50.22,50.22,0,0,1,1.26,5.69,12.79,12.79,0,0,1-.75,4.75,22.77,22.77,0,0,0-.66,3.67,7.4,7.4,0,0,0,.92,4.25c0,.08.82,1.37,3.32,1.6,2.89-.08,3.33-2.14,3.33-2.14s.44-.21.33-3.1a36.12,36.12,0,0,0-1.54-7.42l-9.69-35Z"/><path id="c-2" class="cls-10" d="M198.19,277.41a50.77,50.77,0,0,0,5.2,10.46c4,5.93,6.92,5.61,6.92,5.61s4.41.72,5-2.73a5.06,5.06,0,0,0-2.19-4.7,43.34,43.34,0,0,0-5.87-3.21c-2.85-1.79-2.67-1.76-4.34-4-1-2.54-.71-.76-3.38-10.7s-3.82-15.47-3.9-15.47l-3.53.76,3.5,14.48,1.23,4.93Z"/><path id="c-3" class="cls-11" d="M211.65,262.05a54,54,0,0,0,4.41,10.43c3.47,5.94,6,5.68,6,5.68s3.89.79,4.45-2.59a5.2,5.2,0,0,0-1.86-4.69,38.33,38.33,0,0,0-5.14-3.29,10,10,0,0,1-3.77-4c-.89-2.52-.62-.76-2.81-10.63s-3.1-15.35-3.17-15.35l-3.14.68,2.84,14.37,1,4.89Z"/><path id="c-4" class="cls-10" d="M215.32,262.67a51.55,51.55,0,0,0,5,10.56c3.92,6,6.81,5.75,6.81,5.75s4.39.8,5-2.63A5.05,5.05,0,0,0,230,271.6a41.71,41.71,0,0,0-5.81-3.32c-2.81-1.86-2.63-1.82-4.25-4.07-1-2.55-.7-.77-3.17-10.76s-3.51-15.54-3.59-15.54l-3.54.69,3.21,14.54,1.12,5Z"/><path id="d-3" class="cls-10" d="M211.5,235.88l6.74,25.9a50.22,50.22,0,0,1,1.26,5.69,12.79,12.79,0,0,1-.75,4.75,23.94,23.94,0,0,0-.67,3.67,7.41,7.41,0,0,0,.93,4.25c0,.08.82,1.37,3.32,1.6,2.89-.08,3.33-2.14,3.33-2.14s.44-.21.32-3.1a36.83,36.83,0,0,0-1.56-7.42l-9.7-35Z"/><path id="d-4" class="cls-10" d="M224.15,243.84l8.3,25.45a52.47,52.47,0,0,1,1.6,5.6,12.71,12.71,0,0,1-.46,4.79,23.07,23.07,0,0,0-.44,3.7,7.44,7.44,0,0,0,1.18,4.18c0,.08.91,1.32,3.42,1.4,2.88-.26,3.19-2.34,3.19-2.34s.43-.23.14-3.11a36.57,36.57,0,0,0-2-7.32l-11.8-34.32Z"/><path id="c-5" class="cls-10" d="M228.58,277.43a52.05,52.05,0,0,0,5.3,10.41c4.1,5.88,7,5.54,7,5.54s4.41.67,4.93-2.78a5.07,5.07,0,0,0-2.24-4.68,43.32,43.32,0,0,0-5.9-3.15c-2.87-1.77-2.69-1.73-4.38-3.93-1.08-2.52-.72-.75-3.5-10.66s-4-15.44-4-15.43l-3.52.8L225.87,268l1.27,4.92Z"/><path id="c-6" class="cls-10" d="M210,268.65a51.55,51.55,0,0,0,5,10.56c3.92,6,6.81,5.75,6.81,5.75s4.39.8,5-2.63a5.09,5.09,0,0,0-2-4.75,41.71,41.71,0,0,0-5.81-3.32c-2.81-1.86-2.63-1.82-4.25-4.06-1-2.56-.7-.78-3.17-10.77S208,243.89,208,243.89l-3.54.69,3.21,14.54,1.12,5Z"/><path id="c-7" class="cls-10" d="M206.06,265.89a51.55,51.55,0,0,0,5,10.56c3.92,6,6.81,5.75,6.81,5.75s4.39.8,5-2.63a5.07,5.07,0,0,0-2.09-4.74A44.53,44.53,0,0,0,215,271.5c-2.81-1.85-2.63-1.81-4.26-4.06-1-2.55-.69-.77-3.17-10.76S204,241.13,204,241.13l-3.55.7,3.21,14.54,1.13,5Z"/><path id="d-5" class="cls-10" d="M215.67,238.33l6.73,25.9a50.22,50.22,0,0,1,1.26,5.69,12.79,12.79,0,0,1-.75,4.75,22.77,22.77,0,0,0-.66,3.67,7.4,7.4,0,0,0,.92,4.25c0,.08.82,1.36,3.33,1.6,2.88-.08,3.32-2.14,3.32-2.14s.45-.21.33-3.1a36.17,36.17,0,0,0-1.57-7.42l-9.69-35Z"/><path id="c-8" class="cls-10" d="M233.07,278.71a51.44,51.44,0,0,0,5.76,10.16c4.35,5.7,7.21,5.23,7.21,5.23s4.44.47,4.8-3a5.07,5.07,0,0,0-2.43-4.58,44.15,44.15,0,0,0-6-2.89c-2.94-1.64-2.76-1.61-4.55-3.73-1.19-2.47-.75-.72-4-10.5s-4.65-15.24-4.73-15.24l-3.48,1,4.28,14.27,1.49,4.85Z"/><path class="cls-10" d="M229.1,248.92l9.26,24.74a49.87,49.87,0,0,1,1.81,5.46,12.83,12.83,0,0,1-.28,4.82,23.14,23.14,0,0,0-.3,3.72,7.21,7.21,0,0,0,1.34,4.09c0,.08,1,1.24,3.47,1.12,2.86-.49,3.09-2.59,3.09-2.59a13.87,13.87,0,0,0-.37-5.44c-.63-3.39-6.7-14.5-9.1-22l-5.35-16.37Z"/><path id="e" class="cls-3" d="M225.32,153.9A89,89,0,0,0,217,165.82c-4.65,7.83-4.85,8.15-7,14-1.55,5.73-1.56,7.66-.49,10.86,1.39,2.58,2.74,3.12,4,3.17s1.91-.29,2.83-1.72c1.86-4.21-.48-6.32-1.18-9.83s-.41-.81-.41-3.41a10.41,10.41,0,0,1,1.93-5.28,81,81,0,0,1,5.08-8.11c4-6.2,6-9.6,6-9.6s.43-1.39-.5-2.06a1.79,1.79,0,0,0-1.94,0Z"/><path id="e-2" class="cls-3" d="M222.77,152.66a89,89,0,0,0-8.28,11.92c-4.65,7.83-4.85,8.15-7,14-1.55,5.72-1.57,7.65-.49,10.85,1.38,2.58,2.73,3.12,4,3.17s1.91-.29,2.84-1.72c1.86-4.21-.48-6.32-1.19-9.83s-.41-.81-.41-3.41a10.39,10.39,0,0,1,1.94-5.28,75.46,75.46,0,0,1,5.08-8.11c4-6.19,6-9.6,6-9.6s.43-1.38-.51-2.06a1.79,1.79,0,0,0-1.94,0Z"/><path id="e-3" class="cls-3" d="M244.26,146.43a89.5,89.5,0,0,0-9.76,10.74c-5.62,7.15-5.86,7.45-8.77,13-2.28,5.48-2.55,7.39-1.9,10.7,1,2.74,2.31,3.45,3.55,3.66s1.93,0,3-1.33c2.39-3.94.34-6.34.1-9.9s-.3-.86,0-3.44a10.28,10.28,0,0,1,2.61-5,75.63,75.63,0,0,1,6.09-7.39c4.81-5.61,7.17-8.74,7.17-8.74s.61-1.32-.23-2.11a1.83,1.83,0,0,0-1.93-.2Z"/><path id="f" class="cls-3" d="M232.1,146.44s-6.19,10.11-8.43,14c-2.73,4.26-5.22,10.28-7.6,13.47-2.87,3-5.73,3.54-7.74,5.47-2.3,2.07-2.73,3.07-2.84,4.8a3.54,3.54,0,0,0,4.66,3.28c2.29-.29,4.83-4,4.83-4L220.52,173c4.92-10.15,14.77-25.12,14.77-25.12Z"/><path id="e-4" class="cls-3" d="M219.54,152.77a90,90,0,0,0-8.29,11.92c-4.64,7.83-4.84,8.15-7,14-1.55,5.73-1.56,7.66-.49,10.86,1.38,2.58,2.74,3.12,4,3.17s1.91-.29,2.83-1.72c1.86-4.21-.48-6.32-1.18-9.83s-.41-.81-.41-3.41a10.29,10.29,0,0,1,1.93-5.28,81,81,0,0,1,5.08-8.11c4.05-6.2,6-9.6,6-9.6s.43-1.39-.51-2.06a1.82,1.82,0,0,0-1.93,0Z"/><path id="f-2" class="cls-3" d="M251.12,147.8s-7.6,9.1-10.39,12.61c-3.32,3.81-6.67,9.41-9.49,12.22-3.28,2.58-6.18,2.65-8.45,4.28-2.58,1.7-3.15,2.63-3.51,4.33a3.56,3.56,0,0,0,3.11,3.95,3.49,3.49,0,0,0,1,0c2.31.05,5.36-3.22,5.36-3.22l7-9.57c6.35-9.32,18.28-22.69,18.28-22.69Z"/><path id="e-5" class="cls-3" d="M246.77,148.46a88.71,88.71,0,0,0-9.62,10.87c-5.54,7.23-5.77,7.52-8.61,13.11-2.21,5.5-2.45,7.42-1.76,10.72,1.08,2.72,2.36,3.42,3.6,3.62s1.93-.07,3-1.38c2.34-4,.26-6.34,0-9.9s-.31-.86,0-3.43a10.43,10.43,0,0,1,2.54-5,76.91,76.91,0,0,1,6-7.47c4.74-5.68,7.06-8.83,7.06-8.83a2,2,0,0,0-.26-2.11,1.8,1.8,0,0,0-1.93-.18Z"/><path id="f-3" class="cls-3" d="M254,149.12s-7.6,9.1-10.39,12.61c-3.32,3.82-6.67,9.41-9.49,12.22-3.28,2.58-6.18,2.66-8.45,4.28-2.58,1.7-3.15,2.63-3.51,4.33a3.56,3.56,0,0,0,3.11,3.95,3.49,3.49,0,0,0,1,0c2.31.05,5.36-3.22,5.36-3.22l7-9.57C245,164.37,257,151,257,151Z"/><path id="e-6" class="cls-3" d="M240.48,144.78a89.91,89.91,0,0,0-9.71,10.83c-5.56,7.21-5.79,7.5-8.66,13.07-2.23,5.5-2.47,7.42-1.8,10.72,1.06,2.72,2.34,3.43,3.59,3.63s1.93-.06,3-1.36c2.35-4,.29-6.34,0-9.91s-.31-.85,0-3.43a10.44,10.44,0,0,1,2.55-5,81,81,0,0,1,6-7.44c4.77-5.65,7.1-8.8,7.1-8.8a2,2,0,0,0-.26-2.11,1.81,1.81,0,0,0-1.92-.19Z"/><path id="f-4" class="cls-3" d="M254.85,153.28s-7.6,9.1-10.38,12.61c-3.33,3.81-6.67,9.41-9.49,12.22-3.28,2.58-6.19,2.65-8.46,4.28-2.58,1.7-3.15,2.63-3.51,4.33a3.56,3.56,0,0,0,3.11,3.95,3.49,3.49,0,0,0,1,0c2.31,0,5.36-3.22,5.36-3.22l7-9.57c6.35-9.32,18.27-22.69,18.27-22.69Z"/><path id="f-5" class="cls-12" d="M252.53,160.7s-7.92,9.87-10.81,13.67c-3.48,4.14-6.88,10.14-9.85,13.21-3.49,2.85-6.7,3-9.13,4.85-2.76,1.9-3.34,2.89-3.65,4.69a3.89,3.89,0,0,0,3.73,4,3.64,3.64,0,0,0,1-.1c2.56-.05,5.76-3.61,5.76-3.61l7.25-10.33c6.53-10,19-24.56,19-24.56Z"/><path id="g" class="cls-3" d="M254.93,168.84s-1.1,1.32-10.38,13.23c-8.48,13-9.77,15.5-9.77,15.5s-1.37,2.52-2.75,3.27-3.74.67-4.45.13-1.06-.59-1.29-3.11a3.93,3.93,0,0,1,1.31-2.63,9,9,0,0,1,3.44-1.6,8,8,0,0,0,3.15-3c2.05-3.23,3-4.81,6.41-9.52,4.47-6.23,8-10,12.07-14.9Z"/><path id="f-6" class="cls-12" d="M255.35,166.6s-7.25,10-9.88,13.81c-3.19,4.2-6.16,10.16-8.93,13.3-3.33,3-6.58,3.41-8.9,5.31-2.66,2-3.17,3-3.33,4.73,0,2.34,2.57,4.08,5.2,3.37,2.61-.24,5.57-3.86,5.57-3.86s3.86-6.14,6.53-10.37c5.81-10,17.32-24.79,17.32-24.79Z"/><path id="g-2" class="cls-3" d="M261.05,170.12s-1,1.38-9.68,13.75c-7.8,13.46-9,16-9,16s-1.23,2.58-2.57,3.41a5.35,5.35,0,0,1-4.44.36c-.74-.5-1.08-.54-1.44-3a4,4,0,0,1,1.17-2.7,8.94,8.94,0,0,1,3.35-1.77,8,8,0,0,0,3-3.12c1.88-3.34,2.71-5,5.91-9.85,4.14-6.45,7.46-10.42,11.28-15.5Z"/><path class="cls-13" d="M311.05,103.57a133.92,133.92,0,0,0-34.09,8.2l.92,1.84a132.88,132.88,0,0,1,33.5-8C312.37,105.46,312.15,103.47,311.05,103.57Z"/><path class="cls-14" d="M317.92,106.75a120.93,120.93,0,0,0-28.81,4.89c-3.54,1-7,2.19-10.46,3.5l.93,1.87a129.48,129.48,0,0,1,38.52-8.21c1.21-.13,1-2-.18-2Z"/><path class="cls-14" d="M312.87,110.91a129.06,129.06,0,0,0-32.52,7.63l.79,1.57a128,128,0,0,1,32-7.49C314.16,112.55,314,110.81,312.87,110.91Z"/><path class="cls-14" d="M281.77,121.34l.92,1.85a124.15,124.15,0,0,1,39-7.72,1,1,0,0,0-.15-2A131.57,131.57,0,0,0,281.77,121.34Z"/><path class="cls-14" d="M315.59,117.45a123.2,123.2,0,0,0-32.13,7.29l1,1.89a130.82,130.82,0,0,1,31.53-7.15c1.22-.18.93-2.13-.35-2Z"/><path class="cls-14" d="M285.34,128.48l.92,1.84c9.93-3.64,26.24-7.09,35.7-6.93,1-.08.94-2-.08-2.07-11.88,0-24.29,2.71-36.54,7.16Z"/><path class="cls-14" d="M314.51,125.73a118.25,118.25,0,0,0-27.32,6.45l.92,1.84a112.62,112.62,0,0,1,26.66-6.23,1,1,0,1,0-.23-2.06Z"/><path class="cls-14" d="M289,135.85l.93,1.85a121.58,121.58,0,0,1,29.7-6.09,1,1,0,0,0-.17-2.09C309.26,129.91,298.11,132.67,289,135.85Z"/><path class="cls-14" d="M320.41,134c-7.58.05-20.85,2.84-29.37,5.88l.93,1.85c8.14-2.88,21.56-5.53,28.54-5.7a1,1,0,1,0-.1-2Z"/><path class="cls-14" d="M314,138.77a109.84,109.84,0,0,0-20.91,5.1l.93,1.84a99,99,0,0,1,20.41-5,1,1,0,0,0-.2-2Z"/><path class="cls-14" d="M320.15,142.16c-7.83.28-18,2.58-25.38,5.14l.93,1.86c6.83-2.36,16.59-4.65,24.48-4.94a1,1,0,0,0,0-2.06Z"/><path id="h" class="cls-15" d="M305.77,136.54s-16.38-3.46-15.36,5.71C294.65,149.81,305.77,136.54,305.77,136.54Z"/><path id="h-2" class="cls-16" d="M302.24,147s-13.28,8.6-15.61.14C287.77,139,302.24,147,302.24,147Z"/><path id="h-3" class="cls-15" d="M292.19,135.85s-15.33,3.77-10.61,11.33C288.35,152,292.19,135.85,292.19,135.85Z"/><path id="h-4" class="cls-17" d="M292.48,151.41s-13.15,7.51-14.74-.87C279.34,142.72,292.48,151.41,292.48,151.41Z"/><path id="h-5" class="cls-18" d="M282.14,139.19s-14.56,5.49-9,12.26C280.3,155.34,282.14,139.19,282.14,139.19Z"/><path id="h-6" class="cls-15" d="M284.2,155.55s-12.46,7.63-13.84-.74C272,147,284.2,155.55,284.2,155.55Z"/><path id="h-7" class="cls-15" d="M272.58,143.51s-13,8-6.25,13.23C274.13,158.94,272.58,143.51,272.58,143.51Z"/><path id="h-8" class="cls-15" d="M277.63,159s-11.91,9.66-14.8,1.59C263.21,152.52,277.63,159,277.63,159Z"/><path id="h-9" class="cls-15" d="M270.64,163.47s-10,10.34-13.7,3.19C256.32,159.13,270.64,163.47,270.64,163.47Z"/><path id="h-10" class="cls-15" d="M264.68,149.55s-12.71,8-6,13C266.43,164.6,264.68,149.55,264.68,149.55Z"/><path id="h-11" class="cls-15" d="M256.77,155s-11.56,9.49-4.26,13.75C260.42,169.93,256.77,155,256.77,155Z"/><path id="h-12" class="cls-15" d="M263.92,169.4s-10,11.19-13.75,3.29C249.51,164.43,263.92,169.4,263.92,169.4Z"/><path id="h-13" class="cls-15" d="M293.4,112s-17.93-3.44-16.54,7C281.69,127.45,293.4,112,293.4,112Z"/><path id="h-14" class="cls-15" d="M278.54,110.87s-16.47,7.15-9.66,14.53C277.45,129.37,278.54,110.87,278.54,110.87Z"/><path id="h-15" class="cls-15" d="M269.13,115.07s-16.87,8.51-9.45,16.21C268.77,135.21,269.13,115.07,269.13,115.07Z"/><path id="h-16" class="cls-15" d="M259.37,119.84s-15.69,9.53-8,16.46C260.49,139.43,259.37,119.84,259.37,119.84Z"/><path id="h-17" class="cls-15" d="M249.22,126.19s-13.95,11-5.42,16.32C253.11,144.16,249.22,126.19,249.22,126.19Z"/><path id="h-18" class="cls-19" d="M241.51,131.8s-13.53,11.63-4.88,16.75C245.94,149.89,241.51,131.8,241.51,131.8Z"/><path id="h-19" class="cls-19" d="M234.16,137.12s-13.62,11.46-5,16.63C238.44,155.18,234.16,137.12,234.16,137.12Z"/><path id="h-20" class="cls-19" d="M226.49,143.86s-12,13-2.88,17.12C232.92,161.28,226.49,143.86,226.49,143.86Z"/><path id="h-21" class="cls-15" d="M310,123.28s-10.45,14.42-16.19,6.21C291.77,120.28,310,123.28,310,123.28Z"/><path id="h-22" class="cls-15" d="M301.93,116.14s-17.32-.07-14.27,10C293.6,133.65,301.93,116.14,301.93,116.14Z"/><path id="h-23" class="cls-20" d="M301.27,133.17s-16.36,8.53-18-1.72C285.54,122,301.27,133.17,301.27,133.17Z"/><path id="h-24" class="cls-15" d="M290.12,117.39s-18,4.61-12.31,13.26C285.87,136.12,290.12,117.39,290.12,117.39Z"/><path id="h-25" class="cls-15" d="M289.92,136.74s-16.38,9.18-18.16-1.55C273.9,125.28,289.92,136.74,289.92,136.74Z"/><path id="h-26" class="cls-19" d="M279.63,142s-15.37,8.86-17.3-1C264.14,131.81,279.63,142,279.63,142Z"/><path id="h-27" class="cls-15" d="M278.59,120.48s-18.75,7.17-11.65,16.06C276.2,141.65,278.59,120.48,278.59,120.48Z"/><path id="h-28" class="cls-15" d="M265.91,127.19s-16.45,9.56-8.29,16.41C267.19,146.68,265.91,127.19,265.91,127.19Z"/><path id="h-29" class="cls-19" d="M270.39,146.72s-14,10.7-17,.94C254.23,138.13,270.39,146.72,270.39,146.72Z"/><path id="h-30" class="cls-15" d="M255.16,133.28s-15.42,11.2-6.61,17.3C258.38,152.77,255.16,133.28,255.16,133.28Z"/><path id="h-31" class="cls-15" d="M246,139.4S232.14,151,240.9,156.25C250.37,157.68,246,139.4,246,139.4Z"/><path id="h-32" class="cls-21" d="M262.1,152.21s-13,12.71-17.57,3.55C243.94,146.28,262.1,152.21,262.1,152.21Z"/><path id="h-33" class="cls-15" d="M217.3,314.51s12.44,14.19,18.82,5.61C238.24,310.72,217.3,314.51,217.3,314.51Z"/><path id="h-34" class="cls-22" d="M223.38,322.47s13.66,15.27,19.45,5.33C244.25,317.17,223.38,322.47,223.38,322.47Z"/><path id="h-35" class="cls-23" d="M232.34,330.54s12,12.47,16.53,3.84C249.69,325.28,232.34,330.54,232.34,330.54Z"/><path id="h-36" class="cls-23" d="M242.68,299.48s11.57,12.89,2.63,16.76C236.2,316.39,242.68,299.48,242.68,299.48Z"/><path id="h-37" class="cls-15" d="M233.15,313.93s8.79,15.86,15.59,8.29C251.94,313.22,233.15,313.93,233.15,313.93Z"/><path id="h-38" class="cls-23" d="M248.64,310.91s10.61,13.69,16,5.6C266.44,307.57,248.64,310.91,248.64,310.91Z"/><path id="h-39" class="cls-24" d="M248.68,306.9s13,12.24,4.19,17C243.58,324.92,248.68,306.9,248.68,306.9Z"/><path id="h-40" class="cls-25" d="M239.77,324.28s11.94,13.57,17.12,4.85C258.2,319.76,239.77,324.28,239.77,324.28Z"/><path id="h-41" class="cls-26" d="M263.31,300.52s12.61,11.05,5,16C260,317.86,263.31,300.52,263.31,300.52Z"/><path id="h-42" class="cls-26" d="M255.69,316.62s11,12.38,15.64,4.32C272.46,312.28,255.69,316.62,255.69,316.62Z"/><path id="h-43" class="cls-16" d="M271,306.37s11.74,10.38,4,14.71C266.64,322.11,271,306.37,271,306.37Z"/><path id="h-44" class="cls-23" d="M261.08,322.8s13.15,11.28,16.82,2.26C277.85,316,261.08,322.8,261.08,322.8Z"/><path id="h-45" class="cls-24" d="M255.77,314.4S270.27,325,262,330.86C252.77,332.94,255.77,314.4,255.77,314.4Z"/><path id="h-46" class="cls-23" d="M264.12,321.44s13.82,10.44,5.79,15.95C261,339.28,264.12,321.44,264.12,321.44Z"/><path id="h-47" class="cls-23" d="M278.34,313.72s12.17,12.33,3.43,16.62C272.68,330.93,278.34,313.72,278.34,313.72Z"/><path id="h-48" class="cls-15" d="M201.34,185.28s-6.12,16.94,4.2,17.14C214.52,199,201.34,185.28,201.34,185.28Z"/><path id="h-49" class="cls-15" d="M197.77,195.39s-4.83,17.47,5.57,16.92C212.13,208.19,197.77,195.39,197.77,195.39Z"/><path id="h-50" class="cls-15" d="M194.91,205.57S191,223,202,221.88C211,217.28,194.91,205.57,194.91,205.57Z"/><path id="h-51" class="cls-15" d="M193.13,215.77s-2,19,8.14,16.73C209.29,226.77,193.13,215.77,193.13,215.77Z"/><path id="h-52" class="cls-15" d="M192.06,226.28s-1.36,18.14,8.79,15.62C208.7,236.18,192.06,226.28,192.06,226.28Z"/><path id="h-53" class="cls-27" d="M219.57,176s-12.27,14.86-1.6,18.33C228.52,193.72,219.57,176,219.57,176Z"/><path id="h-54" class="cls-15" d="M231,189s-5.69,17.25-13.95,11.17C212.13,191.93,231,189,231,189Z"/><path id="h-55" class="cls-15" d="M211.77,187.21s-8.5,16.25,1.91,17.78C223.25,202.67,211.77,187.21,211.77,187.21Z"/><path id="h-56" class="cls-15" d="M231.05,192.09s-10.3,13.41-.92,15.65C239.3,206.57,231.05,192.09,231.05,192.09Z"/><path id="h-57" class="cls-15" d="M241.69,202s-4.35,15-11.07,9.82C226.54,204.81,241.69,202,241.69,202Z"/><path id="h-58" class="cls-15" d="M225.85,201.46s-6.69,14.79,2,15.38C235.68,214.14,225.85,201.46,225.85,201.46Z"/><path id="h-59" class="cls-15" d="M227.59,198.72s-4.81,17.39-13.13,11.71C209.28,202.51,227.59,198.72,227.59,198.72Z"/><path id="h-60" class="cls-15" d="M206.58,198.66s-5.53,18.5,5.5,18.1C221.47,212.55,206.58,198.66,206.58,198.66Z"/><path id="h-61" class="cls-15" d="M238.82,210.2s-2.85,14.52-10.24,10.44C223.68,214.52,238.82,210.2,238.82,210.2Z"/><path id="h-62" class="cls-15" d="M223.27,211.43s-5.63,14,3.21,14C234.27,222.49,223.27,211.43,223.27,211.43Z"/><path id="h-63" class="cls-15" d="M224.12,207.84s-1.81,18.16-11.23,14C206.25,214.82,224.12,207.84,224.12,207.84Z"/><path id="h-64" class="cls-15" d="M203.11,209.8s-3.2,19.54,7.07,17.9C218.52,222.33,203.11,209.8,203.11,209.8Z"/><path id="h-65" class="cls-15" d="M237.17,217.57s-2,15.92-9.67,11.94C222.25,223.18,237.17,217.57,237.17,217.57Z"/><path id="h-66" class="cls-28" d="M221.39,221.28s-4.18,14.64,4.56,13.93C233.35,231.53,221.39,221.28,221.39,221.28Z"/><path id="h-67" class="cls-29" d="M222,218.28s-.54,18.14-10.1,14.62C204.87,226.43,222,218.28,222,218.28Z"/><path id="h-68" class="cls-15" d="M201.29,221.89s-.32,19.27,9.6,16C218.34,231.39,201.29,221.89,201.29,221.89Z"/><path id="h-69" class="cls-15" d="M191,235.86s.46,18.45,10.13,14.92C208.25,244.28,191,235.86,191,235.86Z"/><path id="h-70" class="cls-15" d="M235.45,226.21s.46,15.33-8,12.9C221.1,234.05,235.45,226.21,235.45,226.21Z"/><path id="h-71" class="cls-15" d="M219.5,231.77s-1.89,16,7.39,13.72C234.21,240.38,219.5,231.77,219.5,231.77Z"/><path id="h-72" class="cls-15" d="M221.3,227.8s.87,18.39-8.85,15.61C205,237.45,221.3,227.8,221.3,227.8Z"/><path id="h-73" class="cls-15" d="M200,233s1.43,18.4,10.68,14.33C217.29,240.38,200,233,200,233Z"/><path id="h-74" class="cls-30" d="M235,234.87s2.13,15.38-6.5,13.7C221.67,244.06,235,234.87,235,234.87Z"/><path id="h-75" class="cls-15" d="M219.9,241.46s-.72,16,7.31,13.16C233.34,249.09,219.9,241.46,219.9,241.46Z"/><path id="h-76" class="cls-15" d="M235.53,243.41s2.46,14.84-6.28,13C222.22,251.88,235.53,243.41,235.53,243.41Z"/><path id="h-77" class="cls-23" d="M191.11,246.73s2.55,17.13,11.23,12.71C208.27,252.52,191.11,246.73,191.11,246.73Z"/><path class="cls-31" d="M224.11,282.39s-9.7.12-16.17-1.94c-8.49-2.32-11.87-10.17-11.87-10.17a7.94,7.94,0,0,0-1.16,4.35c.07,2.32,1.73,7.69,5.9,13.36,4.32,7,7.27,15.24,10.75,20.65,2.79,4.88,8.67,9.29,8.67,9.29s18.73-2.23,20.54-2.65c2.42-.37,19-4.18,22.68-4.39s12.14.34,12.14.34-3-5.47-4.4-6.53c-2.86-2.37-6.33-3.33-9.91-6.8-2-2.15-5.26-6-7.12-8-2.32-2.22-4.07-4.4-6.6-5.82-2.06-1.35-23.45-1.7-23.45-1.7Z"/><path class="cls-7" d="M266.43,302s-6.88.18-10.19.6c-3.67.58-11.54,1.53-17.86,2.18a158.71,158.71,0,0,1-16.89,1.06l-11.64-.55c.75,1.37,1.56,2.71,2.44,4a24.79,24.79,0,0,0,4.47,5.27c1.13,1.09,2.31,2.11,3.54,3.08,1.4-.16,10.2-1.21,13.76-1.7,5.84-.57,8.81-1.36,15.55-2.78,3.52-.72,11.68-2.44,13.8-2.55,2.39-.2,10.9.25,11.8.33-.57-.92-1.23-2-2.16-3.6-1.32-2.23-2.35-2.8-4.2-4-.74-.48-2.35-1.32-2.42-1.35Z"/><path class="cls-1" d="M202.92,291.15c.55,1,2,3.89,3.25,6.47,1.64,3.53,2.54,5.46,3.73,7.78,2.6.19,5.13.27,11.59.47a156.12,156.12,0,0,0,16.89-1.06c6.32-.64,14.2-1.59,17.86-2.17,3.31-.42,10.3-.59,10.3-.59a46.29,46.29,0,0,1-4.55-3.11c-1.79-1.66-2.61-2.85-4.07-4.39-1.9-.15-4.54-.17-7.43-.37-5.06-.29-12.83.24-17.16.24a168.65,168.65,0,0,1-17.83-.86C207.11,293,205.09,291.56,202.92,291.15Z"/><path class="cls-32" d="M195.94,272a23.24,23.24,0,0,0,4.65,5.7c3.5,2.5,4.41,3,11.18,4.59,6.11,1,7.48.69,15.62.94,7.93.25,10.23.43,15.36.85a40.06,40.06,0,0,1,4.38.58"/></g><g id="b-2"><path class="cls-7" d="M401.2,339.15l37.07-41.44,14.54-52-5.18-48-23.71-46-36.67-28.33-21.92-8.17-6.18,9-10.76,3.19,6.18,5.18.8,13.35,37.46,24.51,22.72,37.84,2.22,42.61L406.41,288,363,329.39Z"/><path id="c-9" class="cls-10" d="M447.06,279.46a50.83,50.83,0,0,1-5.29,10.39c-4.12,5.87-7,5.52-7,5.52s-4.41.65-4.92-2.8a5.12,5.12,0,0,1,2.25-4.67,44.52,44.52,0,0,1,5.91-3.13c2.87-1.76,2.69-1.73,4.39-3.92,1.09-2.52.72-.75,3.53-10.65s4-15.42,4.09-15.42l3.52.81L449.77,270l-1.28,4.91Z"/><path id="d-6" class="cls-10" d="M449,245.68l-7.66,25.6a54.26,54.26,0,0,0-1.46,5.64,13.09,13.09,0,0,0,.57,4.78,20.79,20.79,0,0,1,.53,3.68A7.38,7.38,0,0,1,440,289.6c0,.07-.87,1.33-3.38,1.47-2.89-.18-3.25-2.25-3.25-2.25s-.44-.23-.22-3.11a37.94,37.94,0,0,1,1.84-7.36l10.95-34.61Z"/><path id="d-7" class="cls-10" d="M453.77,239.38,447,265.28a57.67,57.67,0,0,0-1.25,5.69,12.79,12.79,0,0,0,.75,4.75,22.77,22.77,0,0,1,.66,3.67,7.32,7.32,0,0,1-.92,4.25c0,.08-.83,1.37-3.33,1.6-2.89-.08-3.33-2.14-3.33-2.14s-.44-.21-.32-3.1a37.53,37.53,0,0,1,1.56-7.42l9.7-35Z"/><path id="c-10" class="cls-10" d="M451.37,277.41a50.27,50.27,0,0,1-5.2,10.46c-4,5.93-6.92,5.61-6.92,5.61s-4.4.72-5-2.73a5.1,5.1,0,0,1,2.19-4.7,44.58,44.58,0,0,1,5.87-3.21c2.85-1.79,2.67-1.76,4.34-4,1.06-2.54.71-.76,3.39-10.7s3.81-15.47,3.89-15.47l3.53.76L454,267.91l-1.19,5Z"/><path id="c-11" class="cls-11" d="M437.91,262.05a52.82,52.82,0,0,1-4.41,10.43c-3.47,5.94-6,5.68-6,5.68s-3.89.79-4.44-2.59a5.22,5.22,0,0,1,1.85-4.69,39.08,39.08,0,0,1,5.15-3.29,9.92,9.92,0,0,0,3.76-4c.9-2.52.62-.76,2.81-10.63s3.11-15.35,3.17-15.35l3.15.68-2.85,14.37-1,4.89Z"/><path id="c-12" class="cls-10" d="M434.25,262.67a51,51,0,0,1-5,10.56c-3.92,6-6.81,5.75-6.81,5.75s-4.39.8-5-2.63a5.13,5.13,0,0,1,2.09-4.75,45.13,45.13,0,0,1,5.81-3.32c2.81-1.86,2.63-1.82,4.25-4.07,1-2.55.7-.77,3.18-10.76s3.5-15.54,3.58-15.54l3.55.69-3.21,14.54-1.13,5Z"/><path id="d-8" class="cls-10" d="M438.06,235.88l-6.74,25.9a57.67,57.67,0,0,0-1.25,5.69,12.79,12.79,0,0,0,.75,4.75,20.77,20.77,0,0,1,.66,3.67,7.32,7.32,0,0,1-.92,4.25c0,.08-.83,1.37-3.33,1.6-2.89-.08-3.32-2.14-3.32-2.14s-.45-.21-.33-3.1a37.53,37.53,0,0,1,1.56-7.42l9.7-35Z"/><path id="d-9" class="cls-10" d="M425.42,243.84l-8.31,25.44a57.6,57.6,0,0,0-1.6,5.6,13.13,13.13,0,0,0,.46,4.79,22,22,0,0,1,.44,3.7,7.29,7.29,0,0,1-1.18,4.18c0,.08-.9,1.32-3.42,1.4-2.87-.26-3.19-2.34-3.19-2.34s-.43-.23-.13-3.11a38,38,0,0,1,2-7.32l11.81-34.32Z"/><path id="c-13" class="cls-10" d="M421,277.43a50.31,50.31,0,0,1-5.31,10.41c-4.09,5.88-7,5.54-7,5.54s-4.42.67-4.93-2.78a5.11,5.11,0,0,1,2.23-4.68,44.65,44.65,0,0,1,5.91-3.15c2.86-1.77,2.68-1.73,4.37-3.93,1.09-2.52.72-.75,3.5-10.66s4-15.44,4.05-15.43l3.53.8L423.77,268l-1.28,4.92Z"/><path id="c-14" class="cls-10" d="M439.56,268.65a51,51,0,0,1-5,10.56c-3.92,6-6.81,5.75-6.81,5.75s-4.39.8-5-2.63a5.13,5.13,0,0,1,2.09-4.75,45.13,45.13,0,0,1,5.81-3.32c2.81-1.86,2.63-1.82,4.25-4.06,1-2.56.7-.78,3.18-10.77s3.5-15.54,3.58-15.54l3.55.69L442,259.12l-1.13,5Z"/><path id="c-15" class="cls-10" d="M443.5,265.89a50.52,50.52,0,0,1-5,10.56c-3.92,6-6.81,5.75-6.81,5.75s-4.39.8-5-2.63a5.09,5.09,0,0,1,2.09-4.74,43.42,43.42,0,0,1,5.81-3.33c2.8-1.85,2.63-1.81,4.25-4.06,1-2.55.7-.77,3.17-10.76s3.51-15.55,3.59-15.55l3.54.7-3.21,14.54-1.12,5Z"/><path id="d-10" class="cls-10" d="M433.9,238.33l-6.74,25.95a52.45,52.45,0,0,0-1.25,5.69,13,13,0,0,0,.74,4.75,21.74,21.74,0,0,1,.67,3.67,7.32,7.32,0,0,1-.92,4.25c0,.08-.83,1.36-3.33,1.6-2.89-.08-3.33-2.14-3.33-2.14s-.44-.21-.32-3.1a37.53,37.53,0,0,1,1.56-7.42l9.7-35Z"/><path id="c-16" class="cls-10" d="M416.49,278.71a51,51,0,0,1-5.72,10.16c-4.36,5.7-7.22,5.23-7.22,5.23s-4.44.47-4.8-3a5.09,5.09,0,0,1,2.44-4.58,43.54,43.54,0,0,1,6-2.89c2.93-1.64,2.75-1.61,4.54-3.73,1.19-2.47.75-.72,4-10.5s4.65-15.24,4.73-15.24l3.49,1-4.29,14.27-1.51,4.85Z"/><path class="cls-10" d="M420.47,248.92l-9.26,24.74a52.1,52.1,0,0,0-1.81,5.46,13,13,0,0,0,.27,4.82,21.06,21.06,0,0,1,.3,3.72,6.93,6.93,0,0,1-1.34,4.09c0,.08-.95,1.24-3.46,1.12-2.87-.49-3.1-2.59-3.1-2.59a14.25,14.25,0,0,1,.37-5.44c.64-3.39,6.7-14.5,9.1-22l5.35-16.37Z"/><path id="e-7" class="cls-3" d="M424.24,153.9a88.12,88.12,0,0,1,8.29,11.92c4.65,7.83,4.84,8.15,7,14,1.55,5.73,1.56,7.66.49,10.86-1.38,2.58-2.74,3.12-4,3.17s-1.91-.29-2.83-1.72c-1.86-4.21.48-6.32,1.18-9.83s.41-.81.42-3.41a10.21,10.21,0,0,0-1.94-5.28,73.92,73.92,0,0,0-5.08-8.11c-4-6.2-6-9.6-6-9.6s-.43-1.39.51-2.06a1.82,1.82,0,0,1,1.93,0Z"/><path id="e-8" class="cls-3" d="M426.83,152.66a89,89,0,0,1,8.28,11.92c4.65,7.83,4.85,8.15,7,14,1.55,5.72,1.56,7.65.49,10.85-1.39,2.58-2.74,3.12-4,3.17s-1.91-.29-2.84-1.72c-1.85-4.21.49-6.32,1.19-9.83s.41-.81.41-3.41a10.32,10.32,0,0,0-1.93-5.28,78.59,78.59,0,0,0-5.06-8.08c-4.05-6.19-6-9.6-6-9.6s-.43-1.38.5-2.06a1.79,1.79,0,0,1,1.94,0Z"/><path id="e-9" class="cls-3" d="M405.3,146.43a87.85,87.85,0,0,1,9.76,10.74c5.63,7.15,5.87,7.45,8.78,13,2.27,5.48,2.54,7.39,1.89,10.7-1,2.74-2.31,3.45-3.55,3.66s-1.93,0-3-1.33c-2.39-3.94-.35-6.34-.11-9.9s.31-.86,0-3.44a10.19,10.19,0,0,0-2.6-5,74.21,74.21,0,0,0-6.09-7.39c-4.82-5.61-7.18-8.74-7.18-8.74s-.6-1.32.24-2.11a1.79,1.79,0,0,1,1.92-.2Z"/><path id="f-7" class="cls-3" d="M417.46,146.44s6.19,10.11,8.43,14c2.73,4.26,5.23,10.28,7.6,13.47,2.87,3,5.74,3.54,7.75,5.47,2.3,2.07,2.72,3.07,2.83,4.8a3.54,3.54,0,0,1-3.62,3.46,3.65,3.65,0,0,1-1-.18c-2.3-.29-4.84-4-4.84-4L429,173c-4.92-10.15-14.76-25.12-14.76-25.12Z"/><path id="e-10" class="cls-3" d="M430,152.77a89,89,0,0,1,8.28,11.92c4.65,7.83,4.85,8.15,7,14,1.55,5.73,1.57,7.66.49,10.86-1.38,2.58-2.73,3.12-4,3.17s-1.91-.29-2.84-1.72c-1.86-4.21.48-6.32,1.19-9.83s.41-.81.41-3.41a10.21,10.21,0,0,0-1.94-5.28,72.44,72.44,0,0,0-5.08-8.11c-4-6.2-6-9.6-6-9.6s-.43-1.39.51-2.06a1.79,1.79,0,0,1,1.94,0Z"/><path id="f-8" class="cls-3" d="M398.45,147.8s7.6,9.1,10.38,12.61c3.32,3.81,6.67,9.41,9.49,12.22,3.28,2.58,6.19,2.65,8.46,4.28,2.58,1.7,3.14,2.63,3.5,4.33a3.54,3.54,0,0,1-3.08,3.95,3.64,3.64,0,0,1-1,0c-2.31.05-5.37-3.22-5.37-3.22l-7-9.57c-6.35-9.32-18.28-22.69-18.28-22.69Z"/><path id="e-11" class="cls-3" d="M402.77,148.46a88.61,88.61,0,0,1,9.62,10.87c5.53,7.23,5.76,7.52,8.6,13.11,2.21,5.5,2.45,7.42,1.76,10.72-1.07,2.72-2.35,3.42-3.6,3.62s-1.93-.07-3-1.38c-2.33-4-.26-6.34,0-9.9s.31-.86,0-3.43a10.34,10.34,0,0,0-2.54-5,72.92,72.92,0,0,0-6-7.47c-4.75-5.68-7.07-8.83-7.07-8.83a2,2,0,0,1,.27-2.11,1.81,1.81,0,0,1,1.93-.18Z"/><path id="f-9" class="cls-3" d="M395.55,149.12s7.6,9.1,10.38,12.61c3.32,3.82,6.67,9.41,9.49,12.22,3.28,2.58,6.19,2.66,8.46,4.28,2.58,1.7,3.14,2.63,3.5,4.33a3.54,3.54,0,0,1-3.08,3.95,3.64,3.64,0,0,1-1,0c-2.31.05-5.37-3.22-5.37-3.22l-7-9.57c-6.35-9.32-18.28-22.69-18.28-22.69Z"/><path id="e-12" class="cls-3" d="M409.09,144.78a88,88,0,0,1,9.68,10.83c5.56,7.21,5.8,7.5,8.66,13.07,2.23,5.5,2.48,7.42,1.8,10.72-1.06,2.72-2.34,3.43-3.58,3.63s-1.93-.06-3-1.36c-2.35-4-.28-6.34,0-9.91s.31-.85,0-3.43a10.37,10.37,0,0,0-2.56-5,76.54,76.54,0,0,0-6-7.44c-4.76-5.65-7.1-8.8-7.1-8.8a2,2,0,0,1,.26-2.11,1.83,1.83,0,0,1,1.93-.19Z"/><path id="f-10" class="cls-3" d="M394.71,153.28s7.6,9.1,10.39,12.61c3.32,3.81,6.67,9.41,9.49,12.22,3.28,2.58,6.18,2.65,8.45,4.28,2.58,1.7,3.15,2.63,3.51,4.33a3.54,3.54,0,0,1-4.13,3.92c-2.31,0-5.36-3.22-5.36-3.22l-7-9.57c-6.35-9.32-18.28-22.69-18.28-22.69Z"/><path id="f-11" class="cls-12" d="M397,160.7s7.92,9.87,10.82,13.67c3.47,4.14,6.88,10.14,9.84,13.21,3.5,2.85,6.71,3,9.13,4.85,2.76,1.9,3.34,2.89,3.65,4.69a3.87,3.87,0,0,1-3.72,4,3.74,3.74,0,0,1-1.05-.1c-2.56-.05-5.76-3.61-5.76-3.61l-7.25-10.33c-6.53-10-19-24.56-19-24.56Z"/><path id="g-3" class="cls-3" d="M394.63,168.84s1.1,1.32,10.38,13.23c8.49,13,9.78,15.5,9.78,15.5s1.36,2.52,2.75,3.27,3.74.67,4.45.13,1-.59,1.28-3.11a3.84,3.84,0,0,0-1.31-2.63,9,9,0,0,0-3.44-1.6,8,8,0,0,1-3.14-3c-2.06-3.23-3-4.81-6.42-9.52-4.47-6.23-8-10-12.06-14.9Z"/><path id="f-12" class="cls-12" d="M394.22,166.6s7.24,10,9.87,13.81c3.2,4.2,6.17,10.16,8.93,13.3,3.33,3,6.59,3.41,8.91,5.31,2.66,2,3.16,3,3.33,4.73,0,2.34-2.58,4.08-5.21,3.37-2.6-.24-5.57-3.86-5.57-3.86L408,192.89c-5.82-10-17.33-24.79-17.33-24.79Z"/><path id="g-4" class="cls-3" d="M388.52,170.12s1,1.38,9.68,13.75c7.8,13.46,9,16,9,16s1.23,2.58,2.58,3.41,3.7.86,4.43.36,1.09-.54,1.45-3a4,4,0,0,0-1.17-2.7,8.91,8.91,0,0,0-3.36-1.77,8.17,8.17,0,0,1-3-3.12c-1.89-3.34-2.72-5-5.92-9.85-4.14-6.45-7.45-10.42-11.28-15.5Z"/><path class="cls-13" d="M338.52,103.57a133.75,133.75,0,0,1,34.08,8.2l-.91,1.84a132.67,132.67,0,0,0-33.5-8C337.19,105.46,337.41,103.47,338.52,103.57Z"/><path class="cls-14" d="M331.64,106.75a120.93,120.93,0,0,1,28.82,4.89c3.53,1,7,2.19,10.45,3.5L370,117a129.35,129.35,0,0,0-38.52-8.21c-1.21-.13-1-2,.18-2Z"/><path class="cls-14" d="M336.7,110.91a128.78,128.78,0,0,1,32.51,7.63l-.78,1.57a127.94,127.94,0,0,0-32-7.49C335.4,112.55,335.61,110.81,336.7,110.91Z"/><path class="cls-14" d="M367.77,121.34l-.93,1.85a124.15,124.15,0,0,0-39-7.72,1,1,0,0,1,.16-2A131.51,131.51,0,0,1,367.77,121.34Z"/><path class="cls-14" d="M334,117.45a123.09,123.09,0,0,1,32.14,7.29l-.95,1.89a130.68,130.68,0,0,0-31.54-7.15c-1.21-.18-.93-2.13.35-2Z"/><path class="cls-14" d="M364.23,128.48l-.92,1.84c-9.94-3.64-26.24-7.09-35.71-6.93-1-.08-.94-2,.09-2.07C339.56,121.32,352,124,364.23,128.48Z"/><path class="cls-14" d="M335.06,125.73a118.76,118.76,0,0,1,27.32,6.45l-.93,1.84a112.27,112.27,0,0,0-26.63-6.23,1,1,0,0,1,.24-2.06Z"/><path class="cls-14" d="M360.54,135.85l-.93,1.85a121.57,121.57,0,0,0-29.71-6.09,1.05,1.05,0,0,1,.18-2.09C340.31,129.91,351.45,132.67,360.54,135.85Z"/><path class="cls-14" d="M329.15,134c7.58.05,20.85,2.84,29.37,5.88l-.92,1.85c-8.15-2.88-21.57-5.53-28.55-5.7a1,1,0,0,1,.1-2Z"/><path class="cls-14" d="M335.62,138.77a109.56,109.56,0,0,1,20.9,5.1l-.93,1.84a99.35,99.35,0,0,0-20.4-5,1,1,0,1,1,.21-2Z"/><path class="cls-14" d="M329.42,142.16c7.82.28,18,2.58,25.38,5.14l-.93,1.86c-6.84-2.36-16.6-4.65-24.48-4.94a1,1,0,1,1,0-2.06Z"/><path id="h-78" class="cls-15" d="M343.77,136.54s16.37-3.46,15.36,5.71C354.92,149.81,343.77,136.54,343.77,136.54Z"/><path id="h-79" class="cls-16" d="M347.32,147s13.29,8.6,15.61.14C361.84,139,347.32,147,347.32,147Z"/><path id="h-80" class="cls-15" d="M357.37,135.85s15.34,3.77,10.61,11.33C361.21,152,357.37,135.85,357.37,135.85Z"/><path id="h-81" class="cls-17" d="M357.08,151.41s13.15,7.51,14.75-.87C370.23,142.72,357.08,151.41,357.08,151.41Z"/><path id="h-82" class="cls-18" d="M367.43,139.19s14.55,5.49,9,12.26C369.26,155.34,367.43,139.19,367.43,139.19Z"/><path id="h-83" class="cls-15" d="M365.36,155.55s12.47,7.63,13.84-.74C377.59,147,365.36,155.55,365.36,155.55Z"/><path id="h-84" class="cls-15" d="M377,143.51s13,8,6.25,13.23C375.43,158.94,377,143.51,377,143.51Z"/><path id="h-85" class="cls-15" d="M371.94,159s11.91,9.66,14.79,1.59C386.36,152.52,371.94,159,371.94,159Z"/><path id="h-86" class="cls-15" d="M378.93,163.47s10,10.34,13.7,3.19C393.24,159.13,378.93,163.47,378.93,163.47Z"/><path id="h-87" class="cls-15" d="M384.89,149.55s12.7,8,6,13C383.14,164.6,384.89,149.55,384.89,149.55Z"/><path id="h-88" class="cls-15" d="M392.77,155s11.56,9.49,4.27,13.75C389.14,169.93,392.77,155,392.77,155Z"/><path id="h-89" class="cls-15" d="M385.64,169.4s10,11.19,13.76,3.29C400.05,164.43,385.64,169.4,385.64,169.4Z"/><path id="h-90" class="cls-15" d="M356.16,112s17.93-3.44,16.55,7C367.87,127.45,356.16,112,356.16,112Z"/><path id="h-91" class="cls-15" d="M371,110.87s16.47,7.15,9.65,14.53C372.11,129.37,371,110.87,371,110.87Z"/><path id="h-92" class="cls-15" d="M380.44,115.07s16.86,8.51,9.45,16.21C380.77,135.21,380.44,115.07,380.44,115.07Z"/><path id="h-93" class="cls-15" d="M390.19,119.84s15.69,9.53,8,16.46C389.08,139.43,390.19,119.84,390.19,119.84Z"/><path id="h-94" class="cls-15" d="M400.34,126.19s14,11,5.42,16.32C396.45,144.16,400.34,126.19,400.34,126.19Z"/><path id="h-95" class="cls-19" d="M408.06,131.8s13.52,11.63,4.88,16.75C403.63,149.89,408.06,131.8,408.06,131.8Z"/><path id="h-96" class="cls-19" d="M415.4,137.12s13.62,11.46,5,16.63C411.12,155.18,415.4,137.12,415.4,137.12Z"/><path id="h-97" class="cls-19" d="M423.07,143.86s12,13,2.89,17.12C416.64,161.28,423.07,143.86,423.07,143.86Z"/><path id="h-98" class="cls-15" d="M339.53,123.28s10.46,14.42,16.19,6.21C357.77,120.28,339.53,123.28,339.53,123.28Z"/><path id="h-99" class="cls-15" d="M347.63,116.14s17.32-.07,14.27,10C356,133.65,347.63,116.14,347.63,116.14Z"/><path id="h-100" class="cls-20" d="M348.3,133.17s16.35,8.53,18-1.72C364,122,348.3,133.17,348.3,133.17Z"/><path id="h-101" class="cls-15" d="M359.44,117.39s18,4.61,12.31,13.26C363.69,136.12,359.44,117.39,359.44,117.39Z"/><path id="h-102" class="cls-15" d="M359.65,136.74s16.37,9.18,18.16-1.55C375.66,125.28,359.65,136.74,359.65,136.74Z"/><path id="h-103" class="cls-19" d="M369.94,142s15.36,8.86,17.3-1C385.42,131.81,369.94,142,369.94,142Z"/><path id="h-104" class="cls-15" d="M371,120.48s18.75,7.17,11.65,16.06C373.36,141.65,371,120.48,371,120.48Z"/><path id="h-105" class="cls-15" d="M383.65,127.19s16.45,9.56,8.29,16.41C382.38,146.68,383.65,127.19,383.65,127.19Z"/><path id="h-106" class="cls-19" d="M379.17,146.72s14,10.7,17,.94C395.34,138.13,379.17,146.72,379.17,146.72Z"/><path id="h-107" class="cls-15" d="M394.4,133.28s15.42,11.2,6.61,17.3C391.18,152.77,394.4,133.28,394.4,133.28Z"/><path id="h-108" class="cls-15" d="M403.54,139.4s13.88,11.62,5.12,16.85C399.2,157.68,403.54,139.4,403.54,139.4Z"/><path id="h-109" class="cls-21" d="M387.46,152.21s13.05,12.71,17.57,3.55C405.63,146.28,387.46,152.21,387.46,152.21Z"/><path id="h-110" class="cls-15" d="M432.26,314.51s-12.44,14.19-18.82,5.61C411.33,310.72,432.26,314.51,432.26,314.51Z"/><path id="h-111" class="cls-22" d="M426.19,322.47s-13.67,15.27-19.46,5.33C405.31,317.17,426.19,322.47,426.19,322.47Z"/><path id="h-112" class="cls-23" d="M417.22,330.54s-12,12.47-16.53,3.84C399.88,325.28,417.22,330.54,417.22,330.54Z"/><path id="h-113" class="cls-23" d="M406.88,299.48s-11.57,12.89-2.63,16.76C413.36,316.39,406.88,299.48,406.88,299.48Z"/><path id="h-114" class="cls-15" d="M416.41,313.93s-8.79,15.86-15.59,8.29C397.62,313.22,416.41,313.93,416.41,313.93Z"/><path id="h-115" class="cls-23" d="M400.92,310.91s-10.6,13.69-16,5.6C383.12,307.57,400.92,310.91,400.92,310.91Z"/><path id="h-116" class="cls-24" d="M400.89,306.9s-13,12.24-4.19,17C406,324.92,400.89,306.9,400.89,306.9Z"/><path id="h-117" class="cls-25" d="M409.77,324.28s-11.94,13.57-17.11,4.85C391.36,319.76,409.77,324.28,409.77,324.28Z"/><path id="h-118" class="cls-26" d="M386.25,300.52s-12.61,11.05-5,16C389.55,317.86,386.25,300.52,386.25,300.52Z"/><path id="h-119" class="cls-26" d="M393.87,316.62s-11,12.38-15.64,4.32C377.1,312.28,393.87,316.62,393.87,316.62Z"/><path id="h-120" class="cls-16" d="M378.62,306.37s-11.74,10.38-4,14.71C382.93,322.11,378.62,306.37,378.62,306.37Z"/><path id="h-121" class="cls-23" d="M388.49,322.8s-13.15,11.28-16.83,2.26C371.77,316,388.49,322.8,388.49,322.8Z"/><path id="h-122" class="cls-24" d="M393.77,314.4s-14.51,10.64-6.24,16.46C396.77,332.94,393.77,314.4,393.77,314.4Z"/><path id="h-123" class="cls-23" d="M385.45,321.44s-13.83,10.44-5.8,15.95C388.57,339.28,385.45,321.44,385.45,321.44Z"/><path id="h-124" class="cls-23" d="M371.23,313.72s-12.18,12.33-3.44,16.62C376.88,330.93,371.23,313.72,371.23,313.72Z"/><path id="h-125" class="cls-15" d="M448.22,185.28s6.12,16.94-4.19,17.14C435,199,448.22,185.28,448.22,185.28Z"/><path id="h-126" class="cls-15" d="M451.77,195.39s4.83,17.47-5.58,16.92C437.43,208.19,451.77,195.39,451.77,195.39Z"/><path id="h-127" class="cls-15" d="M454.66,205.57s3.89,17.46-7.06,16.31C438.62,217.28,454.66,205.57,454.66,205.57Z"/><path id="h-128" class="cls-15" d="M456.43,215.77s2,19-8.14,16.73C440.27,226.77,456.43,215.77,456.43,215.77Z"/><path id="h-129" class="cls-15" d="M457.51,226.28s1.35,18.14-8.8,15.62C440.86,236.18,457.51,226.28,457.51,226.28Z"/><path id="h-130" class="cls-27" d="M430,176s12.28,14.86,1.61,18.33C421,193.72,430,176,430,176Z"/><path id="h-131" class="cls-15" d="M418.53,189s5.69,17.25,14,11.17C437.43,191.93,418.53,189,418.53,189Z"/><path id="h-132" class="cls-15" d="M437.77,187.21s8.49,16.25-1.91,17.78C426.31,202.67,437.77,187.21,437.77,187.21Z"/><path id="h-133" class="cls-15" d="M418.52,192.09s10.29,13.41.91,15.65C410.26,206.57,418.52,192.09,418.52,192.09Z"/><path id="h-134" class="cls-15" d="M407.87,202s4.35,15,11.07,9.82C423,204.81,407.87,202,407.87,202Z"/><path id="h-135" class="cls-15" d="M423.71,201.46s6.69,14.79-2,15.38C413.88,214.14,423.71,201.46,423.71,201.46Z"/><path id="h-136" class="cls-15" d="M422,198.72s4.81,17.39,13.13,11.71C440.28,202.51,422,198.72,422,198.72Z"/><path id="h-137" class="cls-15" d="M443,198.66s5.54,18.5-5.49,18.1C428.1,212.55,443,198.66,443,198.66Z"/><path id="h-138" class="cls-15" d="M410.77,210.2s2.84,14.52,10.23,10.44C425.89,214.52,410.77,210.2,410.77,210.2Z"/><path id="h-139" class="cls-15" d="M426.29,211.43s5.64,14-3.21,14C415.29,222.49,426.29,211.43,426.29,211.43Z"/><path id="h-140" class="cls-15" d="M425.44,207.84s1.81,18.16,11.23,14C443.31,214.82,425.44,207.84,425.44,207.84Z"/><path id="h-141" class="cls-15" d="M446.45,209.8s3.2,19.54-7.07,17.9C431.05,222.33,446.45,209.8,446.45,209.8Z"/><path id="h-142" class="cls-15" d="M412.4,217.57s2,15.92,9.66,11.94C427.31,223.18,412.4,217.57,412.4,217.57Z"/><path id="h-143" class="cls-28" d="M428.17,221.28s4.18,14.64-4.56,13.93C416.21,231.53,428.17,221.28,428.17,221.28Z"/><path id="h-144" class="cls-29" d="M427.59,218.28s.55,18.14,10.1,14.62C444.69,226.43,427.59,218.28,427.59,218.28Z"/><path id="h-145" class="cls-15" d="M448.28,221.89s.31,19.27-9.6,16C431.22,231.39,448.28,221.89,448.28,221.89Z"/><path id="h-146" class="cls-15" d="M458.54,235.86s-.46,18.45-10.13,14.92C441.31,244.28,458.54,235.86,458.54,235.86Z"/><path id="h-147" class="cls-15" d="M414.11,226.21s-.46,15.33,8,12.9C428.46,234.05,414.11,226.21,414.11,226.21Z"/><path id="h-148" class="cls-15" d="M430.07,231.77s1.88,16-7.4,13.72C415.35,240.38,430.07,231.77,430.07,231.77Z"/><path id="h-149" class="cls-15" d="M428.26,227.8s-.86,18.39,8.85,15.61C444.54,237.45,428.26,227.8,428.26,227.8Z"/><path id="h-150" class="cls-15" d="M449.53,233s-1.43,18.4-10.67,14.33C432.27,240.38,449.53,233,449.53,233Z"/><path id="h-151" class="cls-30" d="M414.52,234.87s-2.13,15.38,6.5,13.7C427.9,244.06,414.52,234.87,414.52,234.87Z"/><path id="h-152" class="cls-15" d="M429.66,241.46s.72,16-7.31,13.16C416.22,249.09,429.66,241.46,429.66,241.46Z"/><path id="h-153" class="cls-15" d="M414,243.41s-2.46,14.84,6.28,13C427.34,251.88,414,243.41,414,243.41Z"/><path id="h-154" class="cls-23" d="M458.46,246.73s-2.56,17.13-11.24,12.71C441.29,252.52,458.46,246.73,458.46,246.73Z"/><path class="cls-31" d="M425.46,282.39s9.69.12,16.16-1.94c8.49-2.32,11.87-10.16,11.87-10.16a7.76,7.76,0,0,1,1.17,4.35c-.08,2.32-1.74,7.69-5.91,13.36-4.32,7-7.26,15.24-10.75,20.65-2.79,4.88-8.67,9.29-8.67,9.29s-18.73-2.24-20.56-2.66c-2.41-.37-19-4.18-22.67-4.39s-12.15.34-12.15.34,3-5.47,4.4-6.53c2.87-2.37,6.33-3.33,9.92-6.8,2-2.15,5.25-6,7.11-8,2.32-2.22,4.07-4.4,6.6-5.82,2.06-1.35,23.46-1.7,23.46-1.7Z"/><path class="cls-7" d="M383.13,302s6.88.18,10.2.6c3.66.58,11.53,1.53,17.85,2.18a156.62,156.62,0,0,0,16.9,1.06l11.69-.55a44.87,44.87,0,0,1-2.44,4,24.55,24.55,0,0,1-4.48,5.27,41.54,41.54,0,0,1-3.54,3.08c-1.39-.16-10.2-1.21-13.75-1.7-5.85-.57-8.82-1.36-15.55-2.78-3.52-.72-11.68-2.44-13.8-2.55-2.4-.2-10.91.25-11.8.33.56-.92,1.23-2,2.16-3.6,1.32-2.23,2.34-2.8,4.2-4,.73-.48,2.35-1.32,2.41-1.35Z"/><path class="cls-1" d="M446.64,291.15c-.54,1-2,3.89-3.25,6.47-1.63,3.53-2.54,5.46-3.73,7.78-2.59.19-5.13.27-11.58.47a156.62,156.62,0,0,1-16.9-1.06c-6.32-.64-14.19-1.59-17.86-2.17-3.31-.42-10.3-.59-10.3-.59a44,44,0,0,0,4.55-3.11c1.79-1.66,2.62-2.85,4.08-4.39,1.89-.15,4.54-.17,7.43-.37,5.05-.29,12.82.24,17.16.24a168.4,168.4,0,0,0,17.83-.86c8.38-.61,10.4-2,12.57-2.41Z"/><path class="cls-32" d="M453.62,272a22.76,22.76,0,0,1-4.64,5.7c-3.51,2.5-4.41,3-11.19,4.59-6.1,1-7.48.69-15.62.94-7.93.25-10.22.43-15.35.85a40.39,40.39,0,0,0-4.38.58"/></g><path class="cls-31" d="M291.61,318.71a21.77,21.77,0,0,0-3.5.37c-7.78,1.34-13.63,5.9-33,10.47a66.24,66.24,0,0,1-21.36,2,1.62,1.62,0,0,1-1.06-1.5l-1.9-1.09a3.65,3.65,0,0,0,0,3.4,4.44,4.44,0,0,0,1.22,1.86c14,10,14.36,12.1,22.41,19.7,4.44,4.37,5.78,5.76,20.56,3.41,2.91,4.73,3.55,7.2,11.95,4.75l1.42,3.55c1.3,2.44,3.1,2.47,7.64,1.5,11.78-2.53,15.19-5.4,28.64-5.7,13.46.3,16.87,3.17,28.65,5.7,4.55,1,6.34.94,7.65-1.5l1.41-3.55c8.41,2.45,9,0,12-4.75,14.79,2.35,16.12,1,20.56-3.41,8-7.6,8.41-9.74,22.41-19.7a4.21,4.21,0,0,0,1.21-1.86,3.59,3.59,0,0,0,0-3.4l-1.9,1.09a1.6,1.6,0,0,1-1.05,1.5,66.3,66.3,0,0,1-21.36-2c-19.37-4.57-25.22-9.13-33-10.47-3.11-.55-6.52-.76-8,1.26-1.67,2-3.07,5.92-5.46,9.52-4.5-1.42-8.06-2.74-11.74-3.51a67,67,0,0,0-22.69,0c-3.67.77-7.24,2.09-11.74,3.51-2.39-3.6-3.78-7.48-5.46-9.52-.9-1.26-2.58-1.65-4.46-1.63Z"/><path class="cls-33" d="M290.17,328.33a21.12,21.12,0,0,1,2.18,5.74"/><path class="cls-1" d="M243.24,342.64c4.95-.54,6.39-.67,10.48-1.35,3.84-.7,7-1.4,10.46-2.34,1,1.56,2,3.05,3.1,4.59a36,36,0,0,1,2.91,5.31c-3.11.28-5.68.75-8.94,1.17-2.81.36-6,.8-9.31,1.21-1.26-1.24-2.23-2.25-3.6-3.67-1.67-1.69-3-3-5.1-4.92Z"/><path class="cls-1" d="M278,341.58a65.53,65.53,0,0,0-9.34,2.37c1.9,3.3,3,6.43,4.29,9.18,3.84-.87,5.79-1.28,9.5-2l-1.88-4.05Z"/><path class="cls-7" d="M251.92,351.22c3-.37,6-.78,9.13-1.19,3.63-.48,6.06-.89,9.39-1.22.69,1.59,1,2.45,1.86,4.25.68,1.5,1.58,2.92,2.26,4.13-2.21.31-3.89.57-6.32.83a30.7,30.7,0,0,1-5.67.16,9.21,9.21,0,0,1-5.46-2c-1.2-1-3.1-2.9-5.19-4.92Z"/><path class="cls-7" d="M272.91,353.13c3.31-.78,6.28-1.4,9.78-2.1.83,2,1.15,2.92,1.86,5s1.36,4,2,5.94a24.1,24.1,0,0,1-4.14.83,5.52,5.52,0,0,1-4-.92,18.2,18.2,0,0,1-3.27-4.56c-.88-1.57-1.48-2.52-2.29-4.18Z"/><path class="cls-1" d="M322.7,338a51.37,51.37,0,0,0-6.77.76,133.33,133.33,0,0,0-12.8,3.83c-6.79,2.27-8.93,3.31-12.75,4.48-3,.93-5.17,1.43-7.92,2.06,1.32,3.14,2.31,6,3.5,9.42a76.19,76.19,0,0,0,9.67-2.25c3.86-1.27,7.26-2.35,11.42-3.62a78.19,78.19,0,0,1,11-2.51c1.91-.18,3.3-.29,4.75-.34h3.73c1.45,0,2.84.16,4.76.34a77.06,77.06,0,0,1,10.94,2.51c4.17,1.27,7.56,2.35,11.42,3.62a77,77,0,0,0,9.67,2.25c1.19-3.42,2.18-6.28,3.51-9.42-2.76-.63-4.9-1.13-7.93-2.06-3.82-1.17-6-2.21-12.75-4.48-3.84-1.29-7.19-2.46-12.8-3.83a51.18,51.18,0,0,0-6.77-.76,35,35,0,0,0-3.83,0Z"/><path class="cls-7" d="M323,349.75h0a46.43,46.43,0,0,0-10.22,1.35c-7.88,1.83-14.76,4.53-19.29,5.77-2.67.67-5,1.15-7.55,1.66a75.33,75.33,0,0,0,2.74,7.3c1,1.66,2.46,1.85,4,1.66a69.24,69.24,0,0,0,7.15-1.49c5.07-1.36,9.2-2.78,14.05-3.77a56.78,56.78,0,0,1,21.35,0c4.84,1,9,2.41,14,3.77a70.35,70.35,0,0,0,7.15,1.49c1.58.19,3,0,4-1.66a73.67,73.67,0,0,0,2.73-7.3c-2.58-.51-4.89-1-7.55-1.66-4.53-1.24-11.41-3.94-19.29-5.77a46.6,46.6,0,0,0-10.19-1.34H323Z"/><path class="cls-33" d="M359,328.46a35.2,35.2,0,0,0-2.22,5.61"/><path class="cls-1" d="M406,342.64c-5-.54-6.39-.67-10.48-1.35-3.84-.7-7-1.4-10.46-2.34-1,1.56-2,3.05-3.1,4.59a38,38,0,0,0-2.91,5.31c3.11.28,5.68.75,9,1.17,2.8.36,6,.8,9.3,1.21,1.27-1.24,2.23-2.25,3.6-3.67,1.68-1.69,2.95-3,5.1-4.92Z"/><path class="cls-1" d="M371.27,341.58a65.2,65.2,0,0,1,9.34,2.37c-1.9,3.3-3,6.43-4.29,9.18-3.83-.87-5.79-1.28-9.5-2l1.88-4.05Z"/><path class="cls-7" d="M397.31,351.22c-3-.37-6-.78-9.13-1.19-3.62-.48-6.06-.89-9.39-1.22-.69,1.59-1,2.45-1.86,4.25-.68,1.5-1.58,2.92-2.25,4.13,2.2.31,3.89.57,6.31.83a30.7,30.7,0,0,0,5.67.16,9.12,9.12,0,0,0,5.46-2c1.2-1,3.1-2.9,5.19-4.92Z"/><path class="cls-7" d="M376.32,353.13c-3.31-.78-6.28-1.4-9.77-2.1-.84,2-1.16,2.92-1.87,5s-1.36,4-2,5.94a23.43,23.43,0,0,0,4.13.83,5.5,5.5,0,0,0,4-.92,17.71,17.71,0,0,0,3.27-4.56c.88-1.57,1.49-2.52,2.29-4.18Z"/><path class="cls-34" d="M275.77,337c.79,2.21,2.51,5,3.63,7.38.48.92,2,4.15,3.15,7.11"/><path class="cls-34" d="M261.56,334.66c1.84,2.89,3.57,5.54,5.54,8.37a34.19,34.19,0,0,1,3.23,6.17"/><path class="cls-34" d="M387.63,335c-1.84,2.89-3.53,5.24-5.5,8.07a34.84,34.84,0,0,0-3.23,6.17"/><path class="cls-34" d="M373.41,336.78c-.79,2.2-2.51,5.23-3.63,7.6-.48.91-2,4.15-3.15,7.11"/><path class="cls-33" d="M231.7,329.51a1.67,1.67,0,0,0,.13,1.59,2.8,2.8,0,0,0,1.75,1.35,68.8,68.8,0,0,0,18.06-1.17,167.86,167.86,0,0,0,21.45-6.17c4.39-1.58,9.61-3.82,12.74-4.67,3.95-1.06,7.8-1.73,9.17-.05,1,1.54-2.29,3.35-5.59,4.44a67,67,0,0,1-11.32,2.27,113.16,113.16,0,0,0-12,2.67c-2.28.74-4.89,2.6-4.61,4.22.47,2.12,3.49,1.52,6.19.63l17.88-6.83c2-.74,4.23-.49,4.69.6s.08,2.67-2.67,3.23L279,333.06c-3,.55-3.38,2.76-3.15,3.55s1.49,2,5.15,1.12c8.4-2.06,14.25-5,19.68-6.65,13.22-4.48,15.68-4.82,24-4.86,8,0,10.53.3,24,4.86,5.43,1.67,11.28,4.59,19.68,6.65,3.66.87,4.85-.42,5.11-1.24s-.2-2.54-3.11-3.43l-8.56-1.44c-2.75-.56-3.07-2.11-2.67-3.23s2.65-1.34,4.69-.6l17.88,6.83c2.7.89,5.85,1.58,6.32-.54.28-1.62-1.81-3.44-4.74-4.31a112.08,112.08,0,0,0-12.05-2.67,67.35,67.35,0,0,1-11.32-2.27c-3.3-1.09-6.58-2.86-5.63-4.44,1.58-1.72,5.52-1.05,9.21.05,3.13.85,8.36,3.09,12.74,4.67a167.6,167.6,0,0,0,21.4,6.17,68.85,68.85,0,0,0,18.06,1.16,2.77,2.77,0,0,0,1.75-1.35,1.61,1.61,0,0,0,.13-1.59"/></svg>