<?xml version="1.0" encoding="utf-8"?>
<!-- Generator: Adobe Illustrator 25.0.1, SVG Export Plug-In . SVG Version: 6.00 Build 0)  -->
<svg version="1.1" id="flag-icons-ro" xmlns="http://www.w3.org/2000/svg" xmlns:xlink="http://www.w3.org/1999/xlink" x="0px"
	 y="0px" viewBox="0 0 640 480" style="enable-background:new 0 0 640 480;" xml:space="preserve">
<style type="text/css">
	.st0{fill-rule:evenodd;clip-rule:evenodd;fill:#00319C;}
	.st1{fill-rule:evenodd;clip-rule:evenodd;fill:#FFDE00;}
	.st2{fill-rule:evenodd;clip-rule:evenodd;fill:#DE2110;}
	.st3{fill:#CC0000;}
	.st4{fill:#FFD700;}
</style>
<g>
	<path class="st0" d="M0,0h213.3v480H0V0z"/>
	<path class="st1" d="M213.3,0h213.4v480H213.3V0z"/>
	<path class="st2" d="M426.7,0H640v480H426.7V0z"/>
</g>
<path id="path2" class="st3" d="M-29-4h976v488H-29V-4z"/>
<path id="path11728" class="st4" d="M133.7,26.5l-6.8,21.1h-22.2l17.9,13l-6.8,21.1l17.9-13l17.9,13l-6.8-21.1l17.9-13h-22.2
	L133.7,26.5z M133.7,37.5L138,51h14.2l-11.5,8.3l4.4,13.5l-11.5-8.3l-11.5,8.3l4.4-13.5L115.1,51h14.2L133.7,37.5z"/>
<g id="g2900" transform="matrix(0.98931879,0,0,0.98673811,3.8297658,3.7659398)">
	<path id="rect4165-6" class="st4" d="M81.7,134.9l15.3,15.4l14.5-14.4c22,23.6,45.1,46.4,66.9,70.1c3.3,3.3,8.6,3.3,11.9,0
		c3.3-3.3,3.3-8.6,0-11.9c-23.4-22.1-47-44.4-70.4-66.6l19.5-19.4l-27.1-3.8L81.7,134.9z"/>
	<path id="path4179-3" class="st4" d="M131.2,84.9c12.6,7.1,22.2,17.3,27.9,28c5.7,10.8,8.2,22.1,8.3,31.1
		c0.1,18.5-15,33.5-33.5,33.5c-9.9,0-18.7-4.3-24.9-11.1l-3.4,2.9c-0.6-0.2-1.2-0.3-1.8-0.3c-1.5,0-2.9,0.7-3.9,1.8
		c-2.4,0.3-4.4,2-5.2,4.3c-2.5,5.1-7,9.1-12.4,11c-0.1,0-0.1,0-0.1,0.1c-2.5,0.9-5,2.6-7.1,4.7c-4.2,4.3-6.3,9.7-5.1,13.5
		c-0.1,0.3-0.2,0.7-0.2,1c0,1.8,1.4,3.2,3.2,3.2c0.4,0,0.9-0.1,1.3-0.3c3.8,0.9,9-1.3,13.1-5.3c2.3-2.3,4-5.1,4.9-7.8
		c1.9-5.4,5.9-9.8,11.1-12.2c0.1-0.1,0.2-0.1,0.3-0.2c1.7-0.8,3-2.4,3.4-4.2c7.9,9.3,19.7,15.3,33,15.6c24.3,0.6,42.4-17.3,43.2-43
		c0.4-12.9-4.6-29.6-16-43.3C158.5,97.4,145.7,88.7,131.2,84.9L131.2,84.9z"/>
</g>
</svg>
